<?xml version="1.0" encoding="utf-8"?>
<!-- Generator: Adobe Illustrator 15.0.0, SVG Export Plug-In . SVG Version: 6.00 Build 0)  -->
<!DOCTYPE svg PUBLIC "-//W3C//DTD SVG 1.1//EN" "http://www.w3.org/Graphics/SVG/1.1/DTD/svg11.dtd">
<svg version="1.1" xmlns="http://www.w3.org/2000/svg" xmlns:xlink="http://www.w3.org/1999/xlink" x="0px" y="0px" width="2200px"
	 height="2800px" viewBox="0 0 2200 2800" enable-background="new 0 0 2200 2800" xml:space="preserve">
<g id="Icon_Penetration_Testing">
</g>
<g id="Layer_1">
	<linearGradient id="SVGID_1_" gradientUnits="userSpaceOnUse" x1="1101" y1="-0.0249" x2="1100.9999" y2="1905.5754">
		<stop  offset="0" style="stop-color:#EBEBEB"/>
		<stop  offset="1" style="stop-color:#FFFFFF"/>
	</linearGradient>
	<path fill-rule="evenodd" clip-rule="evenodd" fill="url(#SVGID_1_)" d="M1551.85,1422.725l649.15,649.65v727.65H1V2060.5
		l914.8-914.825l47.65-47.65c16.966-16.967,25.45-34.033,25.45-51.2c0-17.2-8.6-34.383-25.8-51.55l-486.8-486.8
		c-17.167-17.167-34.35-25.75-51.55-25.75c-17.167,0-34.233,8.583-51.2,25.75L1,881.025v-64.1l339.35-339.4
		c16.967-17.167,25.45-34.35,25.45-51.55c-0.2-17.167-8.783-34.333-25.75-51.5l-29.8-29.8l37.2-37.25c2.8-2.133,6.017-3.2,9.65-3.2
		c4.3,0,7.95,1.4,10.95,4.2l684.65,674.95l2.9,3.2c3,2.367,6.433,3.55,10.3,3.55c0.2,0,0.417,0,0.65,0
		c4.3-0.233,7.833-1.85,10.6-4.85c3.233-3,4.851-6.533,4.851-10.6v-306.75v306.75c0,4.067-1.617,7.6-4.851,10.6
		c-2.767,3-6.3,4.617-10.6,4.85c-0.233,0-0.45,0-0.65,0c-3.867,0-7.3-1.184-10.3-3.55l-2.9-3.2l-684.65-674.95
		c-3-2.8-6.65-4.2-10.95-4.2c-3.633,0-6.85,1.066-9.65,3.2l-37.2,37.25L1,35.675v-35.7h2200v22.35l-908.6,909.15
		c-16.334,15.9-28.484,33.4-36.451,52.5c-8.133,19.133-12.199,39.966-12.199,62.5c-0.434,22.566,3.316,43.417,11.25,62.55
		c7.732,18.9,19.549,36.283,35.449,52.15L1551.85,1422.725l-24.301,24.25c-3,2.566-6.533,3.85-10.6,3.85
		c-3.434,0-6.549-0.967-9.35-2.898c-0.867-0.635-1.617-1.283-2.25-1.951c-0.666-0.633-1.217-1.266-1.65-1.9l-353.1-353.099
		c-1.268-1.3-2.232-2.817-2.9-4.55c-0.832-1.933-1.25-3.867-1.25-5.8v-412.7v412.7c0,1.933,0.418,3.867,1.25,5.8
		c0.668,1.733,1.633,3.25,2.9,4.55l353.1,353.099c0.434,0.635,0.984,1.268,1.65,1.9c0.633,0.668,1.383,1.316,2.25,1.951
		c2.801,1.932,5.916,2.898,9.35,2.898c4.066,0,7.6-1.283,10.6-3.85L1551.85,1422.725z"/>
	<path fill-rule="evenodd" clip-rule="evenodd" fill="#FFFFFF" d="M2042.65,0L1139.01,903.64c-21.609,21.61-56.66,21.61-78.28,0
		L157.1,0H2042.65z"/>
	<linearGradient id="SVGID_2_" gradientUnits="userSpaceOnUse" x1="1505.6494" y1="1444.0742" x2="1505.6494" y2="1446.6954">
		<stop  offset="0" style="stop-color:#EBEBEB"/>
		<stop  offset="1" style="stop-color:#FFFFFF"/>
	</linearGradient>
	<path fill-rule="evenodd" clip-rule="evenodd" fill="url(#SVGID_2_)" d="M1503.699,1444.074l3.9,3.852L1503.699,1444.074z"/>
	<linearGradient id="SVGID_3_" gradientUnits="userSpaceOnUse" x1="1100.0498" y1="1971.4746" x2="1100.0498" y2="2475.9736">
		<stop  offset="0" style="stop-color:#EBEBEB"/>
		<stop  offset="1" style="stop-color:#FFFFFF"/>
	</linearGradient>
	<path fill-rule="evenodd" clip-rule="evenodd" fill="url(#SVGID_3_)" d="M1985.699,2009.125
		c-0.232-24.467-12.15-37.018-35.75-37.65H249.85c-23.633,0.633-35.45,13.184-35.45,37.65v665.65c0,25.1,12.567,37.766,37.7,38
		h1695.55c25.133-0.234,37.816-12.9,38.049-38V2009.125z"/>
	<linearGradient id="SVGID_4_" gradientUnits="userSpaceOnUse" x1="1351.4307" y1="1489.4658" x2="1351.4307" y2="1616.4307">
		<stop  offset="0" style="stop-color:#EBEBEB"/>
		<stop  offset="1" style="stop-color:#FFFFFF"/>
	</linearGradient>
	<path fill-rule="evenodd" clip-rule="evenodd" fill="url(#SVGID_4_)" d="M1343.881,1521.725
		c-0.234,8.566,2.666,15.967,8.699,22.201l0.15,0.148l-58.5,58.15l73.799,73.801l-73.799-73.801l58.5-58.15l0.5,0.5
		c6.434,6.434,14.049,9.65,22.85,9.65s16.434-3.217,22.9-9.65c6.434-6.432,9.65-14.049,9.65-22.85c0-8.832-3.217-16.467-9.65-22.9
		c-6.467-6.432-14.1-9.549-22.9-9.35c-8.801-0.199-16.416,2.918-22.85,9.35C1346.764,1505.258,1343.646,1512.893,1343.881,1521.725z
		"/>
	<linearGradient id="SVGID_5_" gradientUnits="userSpaceOnUse" x1="1403.8193" y1="1666.667" x2="1403.8193" y2="1710.7391">
		<stop  offset="0" style="stop-color:#EBEBEB"/>
		<stop  offset="1" style="stop-color:#FFFFFF"/>
	</linearGradient>
	<path fill-rule="evenodd" clip-rule="evenodd" fill="url(#SVGID_5_)" d="M1381.299,1676.025c-6.432,6.434-9.549,14.049-9.35,22.85
		c-0.199,8.6,2.801,16.117,9,22.551l0.35,0.35c6.434,6.434,14.051,9.65,22.852,9.65c8.832,0,16.467-3.217,22.898-9.65
		c6.434-6.434,8.65-14.066,8.65-22.9c0-8.801-2.217-16.416-8.65-22.85c-6.432-6.434-14.066-9.551-22.898-9.35
		C1395.35,1666.475,1387.732,1669.592,1381.299,1676.025z"/>
	<linearGradient id="SVGID_6_" gradientUnits="userSpaceOnUse" x1="1054.1499" y1="983.375" x2="1054.1499" y2="985.5526">
		<stop  offset="0" style="stop-color:#EBEBEB"/>
		<stop  offset="1" style="stop-color:#FFFFFF"/>
	</linearGradient>
	<path fill-rule="evenodd" clip-rule="evenodd" fill="url(#SVGID_6_)" d="M1055.6,986.575c-0.434-0.433-0.867-0.866-1.3-1.3
		c-0.633-0.633-1.167-1.267-1.6-1.9c0.433,0.633,0.966,1.267,1.6,1.9C1054.733,985.708,1055.167,986.142,1055.6,986.575z"/>
	<linearGradient id="SVGID_7_" gradientUnits="userSpaceOnUse" x1="1014.9995" y1="667.9248" x2="1014.9995" y2="1036.0735">
		<stop  offset="0" style="stop-color:#EBEBEB"/>
		<stop  offset="1" style="stop-color:#FFFFFF"/>
	</linearGradient>
	<path fill-rule="evenodd" clip-rule="evenodd" fill="url(#SVGID_7_)" d="M915.8,1145.675l56,56.45l3.9,3.85
		c2.767,1.933,5.883,2.9,9.35,2.9c3.634,0,6.85-1.067,9.65-3.2c0.6-0.4,1.116-0.917,1.55-1.55c0-0.034,0.017-0.067,0.05-0.1
		c0.3-0.3,0.583-0.566,0.85-0.8l0.3-0.3c0.4-0.4,0.767-0.783,1.1-1.15l109.2-118.25l4.199-4.5c0.668-1.066,1.1-2.033,1.301-2.9
		c0.633-1.5,0.949-3.1,0.949-4.8v-403.4v403.4c0,1.7-0.316,3.3-0.949,4.8c-0.201,0.867-0.633,1.833-1.301,2.9l-4.199,4.5
		l-109.2,118.25c-0.333,0.367-0.7,0.75-1.1,1.15l-0.3,0.3c-0.267,0.233-0.55,0.5-0.85,0.8c-0.033,0.033-0.05,0.066-0.05,0.1
		c-0.434,0.633-0.95,1.15-1.55,1.55c-2.8,2.133-6.017,3.2-9.65,3.2c-3.466,0-6.583-0.967-9.35-2.9l-3.9-3.85L915.8,1145.675z"/>
	<linearGradient id="SVGID_8_" gradientUnits="userSpaceOnUse" x1="1109.8496" y1="1079.0249" x2="1109.8496" y2="1082.0874">
		<stop  offset="0" style="stop-color:#EBEBEB"/>
		<stop  offset="1" style="stop-color:#FFFFFF"/>
	</linearGradient>
	<path fill-rule="evenodd" clip-rule="evenodd" fill="url(#SVGID_8_)" d="M1111.949,1079.025c-0.633,1.066-1.482,2.033-2.549,2.9
		c-0.668,0.667-1.217,1.2-1.65,1.6c0.434-0.4,0.982-0.934,1.65-1.6C1110.467,1081.058,1111.316,1080.091,1111.949,1079.025z"/>
	<linearGradient id="SVGID_9_" gradientUnits="userSpaceOnUse" x1="907.8726" y1="1344.5127" x2="907.8726" y2="1761.0917">
		<stop  offset="0" style="stop-color:#EBEBEB"/>
		<stop  offset="1" style="stop-color:#FFFFFF"/>
	</linearGradient>
	<path fill-rule="evenodd" clip-rule="evenodd" fill="url(#SVGID_9_)" d="M746.804,1376.725c-0.233,8.8,2.867,16.417,9.3,22.85
		c6.467,6.466,14.1,9.701,22.9,9.701c8.8,0,16.417-3.234,22.85-9.701l73.8,73.8l193.3,193.301v289.949v-289.949l-193.3-193.301
		l-73.8-73.8c6.467-6.433,9.7-14.05,9.7-22.85c0-8.8-3.233-16.417-9.7-22.85c-6.433-6.467-14.05-9.583-22.85-9.35
		c-8.8-0.233-16.433,2.883-22.9,9.35C749.67,1360.308,746.57,1367.925,746.804,1376.725z"/>
	<linearGradient id="SVGID_10_" gradientUnits="userSpaceOnUse" x1="761.9438" y1="1441.1377" x2="761.9438" y2="1485.2125">
		<stop  offset="0" style="stop-color:#EBEBEB"/>
		<stop  offset="1" style="stop-color:#FFFFFF"/>
	</linearGradient>
	<path fill-rule="evenodd" clip-rule="evenodd" fill="url(#SVGID_10_)" d="M649.2,1473.35c-0.233,8.801,2.866,16.434,9.3,22.9
		c6.467,6.434,14.1,9.65,22.9,9.65c8.8,0,16.417-3.217,22.85-9.65c6.467-6.467,9.7-14.1,9.7-22.9H874.7H713.95
		c0-8.801-3.233-16.416-9.7-22.85c-6.434-6.467-14.05-9.584-22.85-9.35c-8.8-0.234-16.433,2.883-22.9,9.35
		C652.066,1456.934,648.967,1464.549,649.2,1473.35z"/>
	<linearGradient id="SVGID_11_" gradientUnits="userSpaceOnUse" x1="996.6997" y1="1203.2251" x2="996.6997" y2="1203.8375">
		<stop  offset="0" style="stop-color:#EBEBEB"/>
		<stop  offset="1" style="stop-color:#FFFFFF"/>
	</linearGradient>
	<path fill-rule="evenodd" clip-rule="evenodd" fill="url(#SVGID_11_)" d="M996.25,1204.125l0.9-0.9L996.25,1204.125z"/>
	<linearGradient id="SVGID_12_" gradientUnits="userSpaceOnUse" x1="973.75" y1="1202.125" x2="973.75" y2="1204.7452">
		<stop  offset="0" style="stop-color:#EBEBEB"/>
		<stop  offset="1" style="stop-color:#FFFFFF"/>
	</linearGradient>
	<path fill-rule="evenodd" clip-rule="evenodd" fill="url(#SVGID_12_)" d="M975.7,1205.975c-0.867-0.634-1.617-1.284-2.25-1.95
		c-0.667-0.633-1.217-1.267-1.65-1.9c0.434,0.633,0.983,1.267,1.65,1.9C974.083,1204.691,974.833,1205.341,975.7,1205.975z"/>
	<linearGradient id="SVGID_13_" gradientUnits="userSpaceOnUse" x1="1180.5752" y1="1537.8125" x2="1180.5752" y2="1822.8392">
		<stop  offset="0" style="stop-color:#EBEBEB"/>
		<stop  offset="1" style="stop-color:#FFFFFF"/>
	</linearGradient>
	<path fill-rule="evenodd" clip-rule="evenodd" fill="url(#SVGID_13_)" d="M1196.525,1570.025c-0.199,8.799,2.916,16.434,9.35,22.9
		c0.066,0.066,0.133,0.133,0.201,0.199l-106.201,105.75v257.75v-257.75l106.201-105.75c6.398,6.301,13.967,9.449,22.699,9.449
		c8.801,0,16.416-3.217,22.85-9.648c6.434-6.467,9.65-14.102,9.65-22.9c0-8.801-3.217-16.418-9.65-22.85
		c-6.434-6.467-14.049-9.584-22.85-9.352c-8.801-0.232-16.434,2.885-22.9,9.352
		C1199.441,1553.607,1196.326,1561.225,1196.525,1570.025z"/>
	<linearGradient id="SVGID_14_" gradientUnits="userSpaceOnUse" x1="1226.9746" y1="1602.2246" x2="1226.9746" y2="1843.415">
		<stop  offset="0" style="stop-color:#EBEBEB"/>
		<stop  offset="1" style="stop-color:#FFFFFF"/>
	</linearGradient>
	<polygon fill-rule="evenodd" clip-rule="evenodd" fill="url(#SVGID_14_)" points="1146.449,1956.625 1146.449,1763.324 
		1307.5,1602.225 1146.449,1763.324 	"/>
	<path fill-rule="evenodd" clip-rule="evenodd" d="M2200,2072.35L1550.85,1422.7l68.5-68.55l-68.5,68.55l-261.399-261.55
		c-15.9-15.867-27.717-33.25-35.45-52.15c-7.934-19.133-11.684-39.983-11.25-62.55c0-22.534,4.066-43.367,12.2-62.5
		c7.967-19.1,20.116-36.6,36.45-52.5L2200,22.3l0.15-0.15v137.1L1380.6,978.8c-22.767,22.567-34.033,45.333-33.8,68.3
		c-0.233,22.767,11.033,45.533,33.8,68.3l238.75,238.75L2200,1934.775l0.15,0.175v137.55L2200,2072.35z M0,118.85L115.8,234.6
		c0.4,0.433,0.934,0.65,1.6,0.65h0.3c1.3,0,2.383-0.317,3.25-0.95c0.833-1.1,1.15-2.066,0.95-2.9c0.2-0.867-0.117-1.617-0.95-2.25
		L0,107.85v-72.2l309.25,309l-25.8,25.75l-60.05-60.1c-3.667-3.633-7.867-5.45-12.6-5.45c-4.933,0-9.216,1.933-12.85,5.8l-26.1,26.1
		c-3.434,2.767-7.2,4.267-11.3,4.5h-1.95c-4.7-0.233-8.55-1.85-11.55-4.85L0,189.35V118.85z M309.25,344.65l29.8,29.8
		c16.967,17.167,25.55,34.333,25.75,51.5c0,17.2-8.483,34.383-25.45,51.55L0,816.9v-51.525L313.6,451.75
		c8.367-8.6,12.55-17.2,12.55-25.8c0-8.567-4.3-17.15-12.9-25.75l-29.8-29.8L309.25,344.65z M146.4,259.4
		c-3.867,3.434-5.7,7.633-5.5,12.6c0,5.133,1.934,9.533,5.8,13.2c3.433,3.433,7.617,5.15,12.55,5.15h1c4.5,0,8.583-1.717,12.25-5.15
		c3.633-3.667,5.45-8.184,5.45-13.55c-0.2-4.733-2.017-8.7-5.45-11.9c-3.867-3.867-8.167-5.917-12.9-6.15
		C154.433,253.6,150.033,255.533,146.4,259.4z M914.8,1145.65L0,2060.475l-0.4,0.375v-51.3l766.65-767.2h0.3l122.6-122.55
		L914.8,1145.65l-25.65-25.85l47.5-47.55c8.4-8.367,12.6-16.85,12.6-25.45c0-8.6-4.3-17.2-12.9-25.8l-89.9-89.85
		c-3.634-3.667-7.717-5.5-12.25-5.5c-5.134,0-9.534,1.934-13.2,5.8l-26.1,26.1c-1.7,1.3-3.517,2.267-5.45,2.9
		c-1.934,0.633-3.867,1.066-5.8,1.3h-1.95c-4.733-0.233-8.483-1.733-11.25-4.5l-257.1-257.1c-3.434-3.433-5.05-7.733-4.85-12.9
		c0-4.733,1.617-8.6,4.85-11.6l26.4-26.4c3.434-4.1,5.15-8.5,5.15-13.2c-0.2-4.733-1.917-8.6-5.15-11.6l-90.2-90.55
		c-8.8-8.6-17.5-12.9-26.1-12.9c-8.6,0-17.083,4.2-25.45,12.6L0,931.6V881l372.55-372.55c16.967-17.167,34.034-25.75,51.2-25.75
		c17.2,0,34.383,8.583,51.55,25.75l486.8,486.8c17.2,17.167,25.8,34.35,25.8,51.55c0,17.167-8.483,34.233-25.45,51.2L914.8,1145.65z
		 M615.45,726.55c-0.867,0.667-1.3,1.417-1.3,2.25c-0.2,0.867,0.133,1.833,1,2.9l123.7,123.4c0.433,0.633,1.083,0.95,1.95,0.95h0.3
		c1.066,0,2.15-0.417,3.25-1.25c0.633-0.866,0.85-1.833,0.65-2.9c0.2-0.667-0.017-1.316-0.65-1.95L620.6,726.25
		c-0.833-0.867-1.8-1.2-2.9-1C617.066,725.25,616.316,725.684,615.45,726.55z M582.3,682.1c-1.933-1.934-3.983-2.9-6.15-2.9
		c-2.133,0-3.95,0.75-5.45,2.25c-1.934,1.733-2.8,3.566-2.6,5.5c-0.2,2.566,0.667,4.816,2.6,6.75c1.267,1.066,2.767,1.6,4.5,1.6h1.6
		c1.934,0,3.767-0.75,5.5-2.25c1.267-1.5,1.9-3.533,1.9-6.1C584.2,685.017,583.566,683.4,582.3,682.1z M795.55,880.25
		c-3.633-3.867-7.933-5.917-12.9-6.15c-5.133,0-9.417,1.933-12.85,5.8c-3.866,3.667-5.7,7.867-5.5,12.6
		c0,5.133,1.934,9.633,5.8,13.5c3.233,3.434,7.316,5.15,12.25,5.15h0.95c4.733,0,8.817-1.716,12.25-5.15
		c3.667-3.867,5.5-8.483,5.5-13.85C800.816,887.65,798.983,883.684,795.55,880.25z"/>
	<path fill-rule="evenodd" clip-rule="evenodd" fill="#FFFFFF" d="M2179.6,926.3c4.5-0.2,8.467,1.417,11.9,4.85
		c3.233,3,4.75,6.75,4.55,11.25c0.2,4.534-1.2,8.517-4.2,11.95l-114.05,113.7c-3.433,3.233-7.399,4.85-11.899,4.85
		c-4.301-0.233-8.067-1.85-11.301-4.85c-3.433-3.433-5.05-7.3-4.85-11.6c-0.2-4.5,1.417-8.367,4.85-11.6l114.051-113.7
		C2171.65,927.717,2175.3,926.1,2179.6,926.3z M2009.15,1113.5c3.232,3,4.85,6.75,4.85,11.25c0.233,4.3-1.267,8.167-4.5,11.6
		l-227.8,227.8c-3.434,3.2-7.5,4.8-12.2,4.8c-4.3,0-8.066-1.5-11.3-4.5c-3.434-3.434-5.05-7.4-4.851-11.9
		c0-4.533,1.733-8.4,5.2-11.6l227.75-227.8c3-3.2,6.55-4.8,10.65-4.8l0.649,0.3C2001.867,1108.45,2005.717,1110.066,2009.15,1113.5z
		 M2066.5,1131.2c4.3,0,8.066,1.616,11.3,4.85c3.233,3.2,4.634,7.067,4.2,11.6c0.2,4.3-1.2,8.167-4.2,11.6l-114.05,113.7
		c-3.434,3.233-7.4,4.95-11.9,5.15c-4.1-0.2-7.767-1.917-11-5.15c-3.433-3.434-5.149-7.184-5.149-11.25
		c-0.2-4.534,1.417-8.4,4.85-11.6l114.05-113.75c3-3.434,6.65-5.034,10.95-4.8L2066.5,1131.2z M2200,1081.875l0.15-0.125v46.4
		L2123.55,1205c-3.433,3-7.517,4.5-12.25,4.5c-4.3,0-8.05-1.617-11.25-4.85c-3.467-3.2-5.083-7.066-4.85-11.6
		c0-4.5,1.717-8.25,5.149-11.25L2200,1081.875z M2200.15,1036.55l-0.15,0.125l-53.9,53.925c-3.433,3.233-7.517,4.95-12.25,5.15
		c-4.066,0-7.717-1.6-10.949-4.8c-3.434-3.434-5.15-7.3-5.15-11.6c0-4.534,1.717-8.4,5.15-11.6l77.25-77.25V1036.55z
		 M2200.15,1268.2v42.2l-0.15,0.125l-99.65,99.375c-3.433,3.199-7.3,4.8-11.6,4.8c-4.3-0.2-8.066-1.917-11.3-5.15
		c-3.434-3.433-5.033-7.183-4.8-11.25c-0.233-4.533,1.366-8.4,4.8-11.6l114.05-113.75c2.43-2.758,5.263-4.333,8.5-4.725
		C2200.05,1268.214,2200.1,1268.206,2200.15,1268.2z M2052.5,1247.85c0.833,0.533,1.633,1.167,2.4,1.9
		c3.232,3.233,4.75,7.1,4.55,11.6c0.2,4.533-1.317,8.517-4.55,11.95l-182,182c-3.434,3.233-7.518,4.851-12.25,4.851
		c-4.301,0-8.051-1.617-11.25-4.851c-3.467-3.2-5.084-7.066-4.851-11.6c0-4.5,1.717-8.367,5.15-11.601l182.05-182
		c0.8-0.867,1.65-1.617,2.55-2.25c2.601-1.867,5.5-2.733,8.7-2.6C2046.5,1245.083,2049.667,1245.95,2052.5,1247.85z M2036.9,1466.25
		c0,4.533-1.617,8.517-4.851,11.95l-68.3,68.3c-3.434,3.2-7.4,4.8-11.9,4.8c-4.3,0-8.066-1.6-11.3-4.8
		c-3.433-3.434-5.05-7.3-4.85-11.6c0-4.533,1.717-8.4,5.149-11.601l68.301-68.3c3.232-3.434,7-5.05,11.3-4.85
		c4.3-0.2,8.167,1.416,11.6,4.85C2035.283,1458.2,2036.9,1461.95,2036.9,1466.25z M2200.15,1218.9L1918.3,1500.75
		c-3.433,3.2-7.5,4.917-12.2,5.15c-4.3,0-7.949-1.617-10.949-4.851c-3.467-3.433-5.2-7.399-5.2-11.899c0-4.533,1.733-8.4,5.2-11.601
		l305-305V1218.9z M0,107.85l120.95,121.3c0.833,0.633,1.15,1.383,0.95,2.25c0.2,0.833-0.117,1.8-0.95,2.9
		c-0.867,0.633-1.95,0.95-3.25,0.95h-0.3c-0.667,0-1.2-0.217-1.6-0.65L0,118.85V107.85z M146.4,259.4
		c3.633-3.867,8.033-5.8,13.2-5.8c4.733,0.233,9.033,2.283,12.9,6.15c3.433,3.2,5.25,7.167,5.45,11.9
		c0,5.367-1.817,9.883-5.45,13.55c-3.667,3.433-7.75,5.15-12.25,5.15h-1c-4.933,0-9.117-1.717-12.55-5.15
		c-3.867-3.667-5.8-8.067-5.8-13.2C140.7,267.033,142.533,262.833,146.4,259.4z M582.3,682.1c1.267,1.3,1.9,2.917,1.9,4.85
		c0,2.566-0.634,4.6-1.9,6.1c-1.733,1.5-3.566,2.25-5.5,2.25h-1.6c-1.733,0-3.233-0.533-4.5-1.6c-1.934-1.934-2.8-4.184-2.6-6.75
		c-0.2-1.934,0.667-3.767,2.6-5.5c1.5-1.5,3.316-2.25,5.45-2.25C578.316,679.2,580.367,680.167,582.3,682.1z M615.45,726.55
		c0.866-0.866,1.616-1.3,2.25-1.3c1.1-0.2,2.066,0.133,2.9,1l123.75,123.7c0.633,0.633,0.85,1.283,0.65,1.95
		c0.2,1.067-0.017,2.034-0.65,2.9c-1.1,0.833-2.184,1.25-3.25,1.25h-0.3c-0.866,0-1.517-0.316-1.95-0.95l-123.7-123.4
		c-0.867-1.067-1.2-2.034-1-2.9C614.15,727.967,614.583,727.217,615.45,726.55z M515.9,1150.55l24.5-24.5h0.3l28.7,28.65v0.35
		l-7.75,7.75h-0.3l-18.4-18.4l-23.8,23.85l14.8,14.8v0.35l-7.4,7.4h-0.35l-14.8-14.8l-26.4,26.4l18.35,18.35v0.35l-7.4,7.4h-0.35
		l-28.65-28.65v-0.35L515.9,1150.55z M268.5,984.2c-2.6,0.933-5.283,1.4-8.05,1.4c-6.233-0.233-11.934-2.917-17.1-8.05
		c-6.434-6.466-9.217-13.133-8.35-20c0.2-7.1,3.633-14.083,10.3-20.95l11.9,6.45v0.35c-2.367,2.333-4.3,4.684-5.8,7.05
		c-1.5,2.366-2.566,4.633-3.2,6.8c-1.3,4.3-0.117,8.267,3.55,11.9c2.367,2.367,5.05,3.65,8.05,3.85c2.767-0.2,5.45-1.583,8.05-4.15
		c2.8-3.034,4.733-6.267,5.8-9.7c0.2-1.7,0.3-3.517,0.3-5.45c0-2.167,0-4.534,0-7.1l-1.3-23.2c-0.2-2.133-0.083-4.283,0.35-6.45
		c0.2-2.134,0.733-4.067,1.6-5.8c0.433-1.933,1.3-3.75,2.6-5.45c1.066-1.934,2.566-3.767,4.5-5.5c5.367-5.567,11.167-8.25,17.4-8.05
		c6,0,11.8,2.684,17.4,8.05c5.033,5.066,7.717,10.333,8.05,15.8c0,0.1,0,0.2,0,0.3v1.95c0,6-2.9,12.65-8.7,19.95l-8.65-4.9
		l-2.65-1.5v-0.35c1.934-2.367,3.55-4.617,4.85-6.75c1.067-1.934,1.817-3.767,2.25-5.5c0.867-3.634-0.316-7.167-3.55-10.6
		c-2.567-2.6-5.25-3.9-8.05-3.9c-2.566,0-5.133,1.4-7.7,4.2c-2.167,2.167-3.684,4.317-4.55,6.45c-0.833,1.933-1.15,4.517-0.95,7.75
		l1.95,23.2c0.2,2.8,0.217,5.534,0.05,8.2c-0.033,0.167-0.05,0.333-0.05,0.5c-0.233,3-0.783,5.783-1.65,8.35
		c-1.267,4.933-4.05,9.667-8.35,14.2c-3.233,3-6.45,5.134-9.65,6.4C268.917,984.05,268.7,984.133,268.5,984.2z M346.75,932.1
		l28.7,28.7v0.3l-7.75,7.75h-0.3l-18.35-18.4L325.2,974.3l14.8,14.85v0.3l-7.4,7.4h-0.35l-14.8-14.8l-26.4,26.4l18.35,18.35v0.35
		l-7.4,7.4h-0.35L273,1005.9v-0.35l73.45-73.45H346.75z M387.35,981.05c6.233,0,12.566,3.117,19,9.35
		c6.667,6.467,9.566,13.017,8.7,19.65c-0.833,6.467-4.7,13.233-11.6,20.3l-5.75,5.8h-0.35l-9.65-9.65v-0.3l5.15-5.2
		c3.233-3.434,5.7-6.117,7.4-8.05c1.3-2.367,2.05-4.617,2.25-6.75c-0.433-2.367-1.933-4.833-4.5-7.4c-2.8-2.8-5.483-4.2-8.05-4.2
		h-0.65c-2.133,0-4.283,0.75-6.45,2.25c-2.567,1.5-5.567,4.083-9,7.75l-29,29c-1.934,1.7-3.55,3.3-4.85,4.8
		c-1.3,1.534-2.267,3.05-2.9,4.55c-1.7,2.566-2.233,5.033-1.6,7.4c0.433,2.133,1.833,4.383,4.2,6.75s4.716,3.767,7.05,4.2h0.65
		c2.167-0.233,4.434-1.1,6.8-2.6c2.133-1.7,4.917-4.167,8.35-7.4l5.5-5.45h0.3l9.65,9.65v0.3l-5.45,5.5
		c-7.533,7.1-14.617,11.284-21.25,12.55c-1.1,0-2.066,0.117-2.9,0.35c-5.6-0.233-11.3-3.134-17.1-8.7
		c-7.5-7.533-10.4-14.95-8.7-22.25c1.3-7.1,5.7-14.4,13.2-21.9l26.1-26.1c7.967-7.934,15.383-12.55,22.25-13.85
		C385.217,981.167,386.283,981.05,387.35,981.05z M446.65,1032.3l-48.95,49.3c-2.8,2.566-5.167,5.033-7.1,7.4
		c-1.934,2.367-3.233,4.733-3.9,7.1c-1.5,3.867-0.2,7.733,3.9,11.6c2.8,2.8,5.583,4.2,8.35,4.2c1.066,0,2.15-0.117,3.25-0.35
		c2.133-1.066,4.383-2.466,6.75-4.2c2.566-1.7,5.25-3.85,8.05-6.45l49-49.25h0.3l9.65,9.65v0.3l-48.65,48.65
		c-2.767,2.6-5.45,4.967-8.05,7.1c-2.8,2.133-5.267,3.85-7.4,5.15c-1.934,0.867-3.767,1.617-5.5,2.25
		c-1.934,0.434-3.75,0.65-5.45,0.65c-1.3,0-2.583-0.1-3.85-0.3c-4.966-0.867-9.917-3.883-14.85-9.05
		c-5.367-5.133-8.483-10.183-9.35-15.15c-0.833-4.933,0.133-9.767,2.9-14.5c1.1-2.333,2.717-4.8,4.85-7.4
		c2.133-2.767,4.6-5.45,7.4-8.05l48.65-48.65H437l9.65,9.7V1032.3z M461.15,1125.1L427,1159.55h-0.35l-9.95-10.3v-0.35l73.45-73.45
		h0.3l14.5,14.85c7.533,7.5,11.4,14.583,11.6,21.25c0.434,6.434-2.783,13.2-9.65,20.3c-6.667,6.433-12.9,9.767-18.7,10
		c-2.567-0.233-5.034-0.883-7.4-1.95l-26.4,47.05h-0.35l-9.65-9.65l24.45-44.5L461.15,1125.1z M484.65,1128.3
		c3.667-0.2,7.75-2.45,12.25-6.75c2.8-3,4.733-5.683,5.8-8.05c0.867-2.367,0.966-4.833,0.3-7.4c-0.833-2.6-2.75-5.3-5.75-8.1
		l-4.55-4.5l-23.85,23.85l3.9,3.85C477.05,1125.5,481.017,1127.867,484.65,1128.3z M1612.6,1006.05v-0.15l14.801-14.5l4.199,3.85
		v0.3l-9.35,9.05l11.9,12.25l7.75-7.45h0.3l3.899,3.9v0.3l-7.75,7.4l13.551,13.25l9.35-9.05h0.3l3.851,3.9v0.3l-14.801,14.8h-0.3
		l-22-22.15l-15.7-15.85V1006.05z M1596.15,1030.7l11.899,11.9l1.95-1.6c2.167-2.367,3.45-4.517,3.85-6.45
		c-0.199-1.7-1.366-3.633-3.5-5.8c-1.533-1.5-2.933-2.467-4.199-2.9c-0.867-0.434-1.617-0.65-2.25-0.65
		c-0.434,0-0.983,0.116-1.65,0.35c-1.267,0.434-2.55,1.4-3.85,2.9L1596.15,1030.7z M1564.6,1054.55l25.101,25.1
		c2.566,2.567,5.033,4.4,7.399,5.5c0.434,0.2,0.983,0.3,1.65,0.3c1.267-0.2,2.767-0.95,4.5-2.25c0.867-1.067,1.5-2.034,1.9-2.9
		c0.232-1.066,0.232-2.133,0-3.2c-1.067-2.167-2.884-4.65-5.45-7.45l-25.45-25.1v-0.35l5.15-4.8l25.149,25.1
		c2.767,2.6,4.9,5.184,6.4,7.75c1.3,2.566,1.733,5.033,1.3,7.4c-0.434,2.567-1.934,5.25-4.5,8.05c-2.8,2.6-5.483,4.216-8.05,4.85
		h-1.601c-2.166,0-4.1-0.533-5.8-1.6c-1.3-0.667-2.6-1.534-3.899-2.6c-1.5-1.067-2.884-2.25-4.15-3.55l-25.15-25.1v-0.35l5.15-4.8
		H1564.6z M1504.35,1117.35c0.101,0,0.2,0,0.301,0h0.949c3.033-0.2,6.483,1.3,10.351,4.5l-2.45,4.4l-0.8,1.4h-0.3
		c-2.367-2.133-4.417-3.316-6.15-3.55c-0.633-0.2-1.167-0.3-1.6-0.3c-1.301,0-2.584,0.65-3.851,1.95c-1.3,1.267-1.95,2.55-1.95,3.85
		c0,1.3,0.75,2.7,2.25,4.2c1.067,0.833,2.15,1.583,3.25,2.25c0.834,0.2,2.117,0.417,3.851,0.65l14.149-1.3l1.851,0.25l0.45,0.05
		c1.5-0.2,2.883,0.017,4.149,0.65c2.601,0.433,5.083,1.933,7.45,4.5c1.267,1.3,2.434,2.917,3.5,4.85c0.066,0.2,0.133,0.417,0.2,0.65
		c0.3,1.133,0.45,2.417,0.45,3.85c0,3.233-1.384,6.25-4.15,9.05c-3.033,2.767-6.05,4.15-9.05,4.15h-1.3
		c-1.934-0.2-3.75-0.733-5.45-1.6c-1.934-0.866-3.767-2.05-5.5-3.55l3.55-6.45h0.35c2.567,2.167,4.917,3.784,7.051,4.85h1.649
		c1.5,0,2.884-0.65,4.15-1.95c1.3-1.267,2.05-2.65,2.25-4.15c-0.2-1.5-0.95-2.8-2.25-3.9c-1.5-1.5-3.217-2.566-5.15-3.2l-2.55-0.3
		l-17.1,0.95c-1.7,0-3.301-0.317-4.801-0.95c-1.933-0.667-3.866-1.85-5.8-3.55c-3.033-3.034-4.433-6.15-4.2-9.35
		c0-3.233,1.4-6.133,4.2-8.7C1498.967,1118.65,1501.65,1117.25,1504.35,1117.35z M1639,1055.8l-22.85-12.85l-3.9,3.85l17.75,17.7
		v0.35l-5.2,5.15h-0.3l-38-37.7v-0.3l7.7-7.75c3.866-4.1,7.517-6.033,10.95-5.8l0.649-0.35c3.033,0,6.367,1.733,10,5.2
		c4.5,4.7,5.9,9.2,4.2,13.5l24.15,13.55v0.3L1639,1055.8z M1552,1070.3l1,0.35c1.7,0,3.417,0.534,5.15,1.6
		c1.699,1.066,3.517,2.566,5.449,4.5l2.9,2.9v0.35l-5.15,4.8l-2.899-2.55c-1.934-1.733-3.333-3.033-4.2-3.9
		c-1.066-0.633-2.133-0.95-3.2-0.95c-1.3,0-2.583,0.75-3.85,2.25c-1.3,1.3-1.95,2.583-1.95,3.85c-0.2,1.1,0.117,2.4,0.95,3.9
		l3.899,4.5l15.101,14.8c1.933,1.733,3.55,3.133,4.85,4.2c0.634,0.434,1.384,0.65,2.25,0.65h1.3c1.067-0.433,2.25-1.083,3.551-1.95
		c1.066-1.5,1.816-2.784,2.25-3.85c-0.2-1.3-0.733-2.483-1.601-3.55c-0.866-1.267-2.05-2.767-3.55-4.5l-2.9-2.6v-0.3l4.851-5.15h0.3
		l2.9,2.9c1.732,1.934,3.232,3.75,4.5,5.45c1.066,1.733,1.717,3.467,1.949,5.2c0.634,3.433-0.767,6.966-4.199,10.6
		c-3.434,3-6.65,4.617-9.65,4.85l-1.95-0.35c-1.933-0.433-3.75-1.183-5.45-2.25c-1.933-1.066-3.866-2.566-5.8-4.5l-13.55-13.55
		c-2.133-2.133-3.75-4.167-4.85-6.1c-1.268-1.933-2.018-3.767-2.25-5.5c-0.867-3.867,0.633-7.617,4.5-11.25
		C1545.684,1071.917,1548.8,1070.3,1552,1070.3z M1531.7,1095.1l-9.351,9.35l12.25,12.25l7.45-7.4h0.3l3.851,3.85v0.35l-7.7,7.05
		l13.5,13.55l9.7-9h0.3l3.55,3.85l-14.5,15.15h-0.3l-38.05-38v-0.35l14.85-14.8h0.3L1531.7,1095.1z M1883.55,1313.55
		c4.5-0.2,8.467,1.417,11.9,4.85c3.233,3.2,4.733,6.95,4.5,11.25c0.233,4.3-1.267,8.167-4.5,11.6l-68.3,68.3
		c-3.434,3.233-7.518,4.95-12.25,5.15c-4.067,0-7.717-1.601-10.95-4.8c-3.434-3.434-5.15-7.301-5.15-11.601
		c0-4.533,1.717-8.4,5.15-11.6l68.3-68.3C1875.483,1314.967,1879.25,1313.35,1883.55,1313.55z M795.55,880.25
		c3.434,3.434,5.267,7.4,5.5,11.9c0,5.367-1.833,9.983-5.5,13.85c-3.433,3.434-7.517,5.15-12.25,5.15h-0.95
		c-4.934,0-9.017-1.716-12.25-5.15c-3.867-3.867-5.8-8.367-5.8-13.5c-0.2-4.733,1.634-8.934,5.5-12.6
		c3.434-3.867,7.717-5.8,12.85-5.8C787.617,874.333,791.917,876.383,795.55,880.25z"/>
	<path fill-rule="evenodd" clip-rule="evenodd" fill="#3567B1" d="M540.4,1126.05l-24.5,24.5
		c-24.267,21.667-49.283,37.983-75.05,48.95s-52.184,16.45-79.25,16.45c-32.434,0-65.95-7.634-100.55-22.9l-0.6-0.65h0.3
		l60.55-60.85l-0.3-0.35l26.1-25.45h0.3l38.7-39l-0.35-0.3l110.85-110.2h0.3L533,920.2v-0.35l0.65,0.65
		c29.2,29.434,48.95,59.5,59.25,90.2c9.667,28.8,8.7,50.716-2.9,65.75L540.4,1126.05z M484.65,1128.3c-3.633-0.433-7.6-2.8-11.9-7.1
		l-3.9-3.85l23.85-23.85l4.55,4.5c3,2.8,4.917,5.5,5.75,8.1c0.667,2.566,0.567,5.033-0.3,7.4c-1.067,2.367-3,5.05-5.8,8.05
		C492.4,1125.85,488.317,1128.1,484.65,1128.3z M461.15,1125.1l7.7,7.7l-24.45,44.5l9.65,9.65h0.35l26.4-47.05
		c2.367,1.067,4.833,1.717,7.4,1.95c5.8-0.233,12.033-3.567,18.7-10c6.867-7.1,10.083-13.867,9.65-20.3
		c-0.2-6.667-4.066-13.75-11.6-21.25l-14.5-14.85h-0.3l-73.45,73.45v0.35l9.95,10.3H427L461.15,1125.1z M446.65,1032.3v-0.3
		l-9.65-9.7h-0.35L388,1070.95c-2.8,2.6-5.267,5.283-7.4,8.05c-2.133,2.6-3.75,5.066-4.85,7.4c-2.767,4.733-3.733,9.567-2.9,14.5
		c0.867,4.967,3.983,10.017,9.35,15.15c4.933,5.167,9.883,8.184,14.85,9.05c1.267,0.2,2.55,0.3,3.85,0.3
		c1.7,0,3.517-0.216,5.45-0.65c1.733-0.633,3.566-1.383,5.5-2.25c2.133-1.3,4.6-3.017,7.4-5.15c2.6-2.133,5.283-4.5,8.05-7.1
		l48.65-48.65v-0.3l-9.65-9.65H466l-49,49.25c-2.8,2.6-5.483,4.75-8.05,6.45c-2.367,1.733-4.617,3.133-6.75,4.2
		c-1.1,0.233-2.184,0.35-3.25,0.35c-2.767,0-5.55-1.4-8.35-4.2c-4.1-3.867-5.4-7.733-3.9-11.6c0.667-2.367,1.966-4.733,3.9-7.1
		c1.933-2.367,4.3-4.833,7.1-7.4L446.65,1032.3z M1564.6,1054.55h-0.35l-5.15,4.8v0.35l25.15,25.1c1.267,1.3,2.65,2.483,4.15,3.55
		c1.3,1.066,2.6,1.933,3.899,2.6c1.7,1.066,3.634,1.6,5.8,1.6h1.601c2.566-0.633,5.25-2.25,8.05-4.85
		c2.566-2.8,4.066-5.483,4.5-8.05c0.434-2.367,0-4.833-1.3-7.4c-1.5-2.566-3.634-5.15-6.4-7.75l-25.149-25.1l-5.15,4.8v0.35
		l25.45,25.1c2.566,2.8,4.383,5.284,5.45,7.45c0.232,1.066,0.232,2.133,0,3.2c-0.4,0.867-1.033,1.833-1.9,2.9
		c-1.733,1.3-3.233,2.05-4.5,2.25c-0.667,0-1.217-0.1-1.65-0.3c-2.366-1.1-4.833-2.933-7.399-5.5L1564.6,1054.55z M1596.15,1030.7
		l2.25-2.25c1.3-1.5,2.583-2.467,3.85-2.9c0.667-0.233,1.217-0.35,1.65-0.35c0.633,0,1.383,0.216,2.25,0.65
		c1.267,0.433,2.666,1.4,4.199,2.9c2.134,2.167,3.301,4.1,3.5,5.8c-0.399,1.934-1.683,4.083-3.85,6.45l-1.95,1.6L1596.15,1030.7z
		 M1612.6,1006.05v0.15l15.7,15.85c15.934,18.767,25.733,38.5,29.4,59.2c3.433,21.934,0,44.917-10.3,68.95l-0.351,0.35v-0.35
		l-44.8-44.45v-0.3l-95.35-95.4h-0.301c-0.033,0.034-0.066,0.067-0.1,0.1c-0.066-0.267,0.066-0.4,0.4-0.4
		c15.033-15.267,30.5-25.467,46.399-30.6c3.434-1.3,6.65-2.267,9.65-2.9c2.8-0.667,5.6-0.883,8.399-0.65
		c6.233,0,11.5,1.716,15.801,5.15c0.199,0,0.616,0.434,1.25,1.3L1612.6,1006.05z M1639,1055.8l5.15-5.15v-0.3L1620,1036.8
		c1.7-4.3,0.3-8.8-4.2-13.5c-3.633-3.466-6.967-5.2-10-5.2l-0.649,0.35c-3.434-0.233-7.084,1.7-10.95,5.8l-7.7,7.75v0.3l38,37.7h0.3
		l5.2-5.15v-0.35l-17.75-17.7l3.9-3.85L1639,1055.8z"/>
	<path fill-rule="evenodd" clip-rule="evenodd" fill="#4977BC" d="M324.55,916l49.95-49.95c0.833-1.267,1.8-2.017,2.9-2.25
		c8.133-6.667,18.434-10,30.9-10c9.9,0,21.284,2.267,34.15,6.8c30.933,10.3,61.117,30.05,90.55,59.25v0.35l-36.1,36.05h-0.3
		l-110.85,110.2l0.35,0.3l-38.7,39h-0.3L321,1131.2l0.3,0.35l-60.55,60.85h-0.3c-8.167-18.667-14.184-37.017-18.05-55.05
		c-3.667-18.267-5.167-36-4.5-53.2c1.5-34.566,11.7-67.883,30.6-99.95c0.2-0.067,0.417-0.15,0.65-0.25c3.2-1.267,6.417-3.4,9.65-6.4
		c4.3-4.533,7.083-9.267,8.35-14.2c0.867-2.567,1.417-5.35,1.65-8.35c0-0.167,0.017-0.333,0.05-0.5c2.033-2.867,4.15-5.6,6.35-8.2
		l12-13l8.65,4.9c5.8-7.3,8.7-13.95,8.7-19.95v-1.95C324.55,916.2,324.55,916.1,324.55,916z M387.35,981.05
		c-1.067,0-2.133,0.117-3.2,0.35c-6.867,1.3-14.283,5.917-22.25,13.85l-26.1,26.1c-7.5,7.5-11.9,14.8-13.2,21.9
		c-1.7,7.3,1.2,14.717,8.7,22.25c5.8,5.566,11.5,8.467,17.1,8.7c0.833-0.233,1.8-0.35,2.9-0.35c6.633-1.267,13.717-5.45,21.25-12.55
		l5.45-5.5v-0.3l-9.65-9.65h-0.3l-5.5,5.45c-3.433,3.233-6.216,5.7-8.35,7.4c-2.367,1.5-4.633,2.366-6.8,2.6h-0.65
		c-2.333-0.433-4.683-1.833-7.05-4.2s-3.767-4.617-4.2-6.75c-0.633-2.367-0.1-4.833,1.6-7.4c0.633-1.5,1.6-3.017,2.9-4.55
		c1.3-1.5,2.917-3.1,4.85-4.8l29-29c3.433-3.667,6.433-6.25,9-7.75c2.167-1.5,4.316-2.25,6.45-2.25h0.65c2.566,0,5.25,1.4,8.05,4.2
		c2.567,2.567,4.067,5.034,4.5,7.4c-0.2,2.133-0.95,4.383-2.25,6.75c-1.7,1.933-4.167,4.616-7.4,8.05l-5.15,5.2v0.3l9.65,9.65h0.35
		l5.75-5.8c6.9-7.067,10.767-13.833,11.6-20.3c0.867-6.633-2.033-13.183-8.7-19.65C399.917,984.167,393.583,981.05,387.35,981.05z
		 M346.75,932.1h-0.3L273,1005.55v0.35l28.65,28.65H302l7.4-7.4v-0.35l-18.35-18.35l26.4-26.4l14.8,14.8h0.35l7.4-7.4v-0.3
		l-14.8-14.85l23.85-23.85l18.35,18.4h0.3l7.75-7.75v-0.3L346.75,932.1z M1539.95,1146.35c-0.067-0.233-0.134-0.45-0.2-0.65
		c-1.066-1.934-2.233-3.55-3.5-4.85c-2.367-2.567-4.85-4.067-7.45-4.5c-1.267-0.633-2.649-0.85-4.149-0.65l-0.45-0.05
		c-2.9-2.466-5.767-4.8-8.601-7l-2.1-2.4l2.45-4.4c-3.867-3.2-7.317-4.7-10.351-4.5h-0.949c-0.101,0-0.2,0-0.301,0l-25.449-25.75
		c-0.667-0.434-1.101-0.867-1.301-1.3c-6.232-7.966-6.767-19.25-1.6-33.85c5.367-15.867,15.533-31.3,30.5-46.3
		c0.033-0.033,0.066-0.066,0.1-0.1h0.301l95.35,95.4v0.3l44.8,44.45v0.35c-17.833,7.5-35.017,11.367-51.55,11.6
		C1576.133,1161.917,1557.617,1156.65,1539.95,1146.35z M1531.7,1095.1l-3.851-4.15h-0.3l-14.85,14.8v0.35l38.05,38h0.3l14.5-15.15
		l-3.55-3.85h-0.3l-9.7,9l-13.5-13.55l7.7-7.05v-0.35l-3.851-3.85h-0.3l-7.45,7.4l-12.25-12.25L1531.7,1095.1z M1552,1070.3
		c-3.2,0-6.316,1.617-9.35,4.85c-3.867,3.633-5.367,7.383-4.5,11.25c0.232,1.733,0.982,3.567,2.25,5.5
		c1.1,1.934,2.717,3.967,4.85,6.1l13.55,13.55c1.934,1.934,3.867,3.434,5.8,4.5c1.7,1.067,3.518,1.817,5.45,2.25l1.95,0.35
		c3-0.233,6.217-1.85,9.65-4.85c3.433-3.633,4.833-7.167,4.199-10.6c-0.232-1.733-0.883-3.467-1.949-5.2
		c-1.268-1.7-2.768-3.517-4.5-5.45l-2.9-2.9h-0.3l-4.851,5.15v0.3l2.9,2.6c1.5,1.733,2.684,3.233,3.55,4.5
		c0.867,1.066,1.4,2.25,1.601,3.55c-0.434,1.066-1.184,2.35-2.25,3.85c-1.301,0.867-2.483,1.517-3.551,1.95h-1.3
		c-0.866,0-1.616-0.216-2.25-0.65c-1.3-1.066-2.917-2.466-4.85-4.2l-15.101-14.8l-3.899-4.5c-0.833-1.5-1.15-2.8-0.95-3.9
		c0-1.267,0.65-2.55,1.95-3.85c1.267-1.5,2.55-2.25,3.85-2.25c1.067,0,2.134,0.317,3.2,0.95c0.867,0.867,2.267,2.167,4.2,3.9
		l2.899,2.55l5.15-4.8v-0.35l-2.9-2.9c-1.933-1.934-3.75-3.434-5.449-4.5c-1.733-1.066-3.45-1.6-5.15-1.6L1552,1070.3z"/>
	<path fill-rule="evenodd" clip-rule="evenodd" fill="#E5D5D5" d="M264.604,2034.25c-0.2-8.6,3.983-12.783,12.55-12.55h75.4
		c8.6-0.233,12.899,3.95,12.899,12.55v25.15c0,8.566-4.3,12.85-12.899,12.85h-75.4c-8.566,0-12.75-4.283-12.55-12.85V2034.25z"/>
	<path fill-rule="evenodd" clip-rule="evenodd" fill="#E5D5D5" d="M277.153,2097.05h75.4c8.6-0.2,12.899,4,12.899,12.601v75.399
		c0,8.567-4.3,12.851-12.899,12.851h-75.4c-8.566,0-12.75-4.283-12.55-12.851v-75.399
		C264.403,2101.05,268.587,2096.85,277.153,2097.05z"/>
	<path fill-rule="evenodd" clip-rule="evenodd" fill="#E5D5D5" d="M277.153,2210.15h138.25c8.566-0.2,12.85,3.982,12.85,12.55
		v75.399c0,8.601-4.283,12.9-12.85,12.9h-138.25c-8.566,0-12.75-4.3-12.55-12.9V2222.7
		C264.403,2214.133,268.587,2209.95,277.153,2210.15z"/>
	<path fill-rule="evenodd" clip-rule="evenodd" fill="#E5D5D5" d="M277.153,2323.25h163.35c8.601-0.233,12.9,3.95,12.9,12.55v75.05
		c0,8.601-4.3,12.9-12.9,12.9h-163.35c-8.566,0-12.75-4.3-12.55-12.9v-75.05C264.403,2327.2,268.587,2323.017,277.153,2323.25z"/>
	<path fill-rule="evenodd" clip-rule="evenodd" fill="#E5D5D5" d="M641.203,2034.25c-0.2-8.6,4-12.783,12.601-12.55h75.35
		c8.6-0.233,12.9,3.95,12.9,12.55v25.15c0,8.566-4.301,12.85-12.9,12.85h-75.35c-8.601,0-12.801-4.283-12.601-12.85V2034.25z"/>
	<path fill-rule="evenodd" clip-rule="evenodd" fill="#E5D5D5" d="M616.403,2059.4c0,8.566-4.283,12.85-12.85,12.85h-75.101
		c-8.6,0-12.783-4.283-12.55-12.85v-25.15c-0.233-8.6,3.95-12.783,12.55-12.55h75.101c8.566-0.233,12.85,3.95,12.85,12.55V2059.4z"
		/>
	<path fill-rule="evenodd" clip-rule="evenodd" fill="#E5D5D5" d="M491.104,2059.4c0,8.566-4.3,12.85-12.9,12.85h-75.399
		c-8.567,0-12.75-4.283-12.551-12.85v-25.15c-0.199-8.6,3.983-12.783,12.551-12.55h75.399c8.601-0.233,12.9,3.95,12.9,12.55V2059.4z
		"/>
	<path fill-rule="evenodd" clip-rule="evenodd" fill="#E5D5D5" d="M503.354,2097.05h75.35c8.4-0.2,12.601,4,12.601,12.601v75.399
		c0,8.567-4.2,12.851-12.601,12.851h-75.35c-8.601,0-12.8-4.283-12.601-12.851v-75.399
		C490.554,2101.05,494.753,2096.85,503.354,2097.05z"/>
	<path fill-rule="evenodd" clip-rule="evenodd" fill="#E5D5D5" d="M616.104,2097.05h75.399c8.567-0.2,12.851,4,12.851,12.601v75.399
		c0,8.567-4.283,12.851-12.851,12.851h-75.399c-8.601,0-12.783-4.283-12.55-12.851v-75.399
		C603.32,2101.05,607.503,2096.85,616.104,2097.05z"/>
	<path fill-rule="evenodd" clip-rule="evenodd" fill="#E5D5D5" d="M390.253,2097.05h75.4c8.566-0.2,12.85,4,12.85,12.601v75.399
		c0,8.567-4.283,12.851-12.85,12.851h-75.4c-8.6,0-12.783-4.283-12.55-12.851v-75.399
		C377.47,2101.05,381.653,2096.85,390.253,2097.05z"/>
	<path fill-rule="evenodd" clip-rule="evenodd" fill="#E5D5D5" d="M453.054,2210.15h75.399c8.601-0.2,12.9,3.982,12.9,12.55v75.399
		c0,8.601-4.3,12.9-12.9,12.9h-75.399c-8.567,0-12.75-4.3-12.551-12.9V2222.7C440.304,2214.133,444.486,2209.95,453.054,2210.15z"/>
	<path fill-rule="evenodd" clip-rule="evenodd" fill="#E5D5D5" d="M478.203,2323.25h75.4c8.6-0.233,12.899,3.95,12.899,12.55v75.05
		c0,8.601-4.3,12.9-12.899,12.9h-75.4c-8.6,0-12.783-4.3-12.55-12.9v-75.05C465.42,2327.2,469.604,2323.017,478.203,2323.25z"/>
	<path fill-rule="evenodd" clip-rule="evenodd" fill="#E5D5D5" d="M566.153,2210.15h75.05c8.601-0.2,12.9,3.982,12.9,12.55v75.399
		c0,8.601-4.3,12.9-12.9,12.9h-75.05c-8.6,0-12.783-4.3-12.55-12.9V2222.7C553.37,2214.133,557.554,2209.95,566.153,2210.15z"/>
	<path fill-rule="evenodd" clip-rule="evenodd" fill="#E5D5D5" d="M590.953,2323.25h75.4c8.6-0.233,12.899,3.95,12.899,12.55v75.05
		c0,8.601-4.3,12.9-12.899,12.9h-75.4c-8.366,0-12.45-4.3-12.25-12.9v-75.05C578.503,2327.2,582.587,2323.017,590.953,2323.25z"/>
	<path fill-rule="evenodd" clip-rule="evenodd" fill="#E5D5D5" d="M1352.73,1544.05l0.15-0.149L1352.73,1544.05l-0.15-0.149
		c-6.033-6.233-8.933-13.634-8.699-22.2c0,8.566,3,15.967,9,22.2l0.35,0.35c6.434,6.434,14.05,9.65,22.85,9.65
		c8.801,0,16.317-3.217,22.551-9.65c6.433-6.233,9.649-13.75,9.649-22.55c0-8.833-3.217-16.467-9.649-22.9
		c-6.233-6.233-13.75-9.35-22.551-9.35c8.801,0,16.317,3.116,22.551,9.35c6.433,6.434,9.649,14.067,9.649,22.9
		c0,8.8-3.217,16.316-9.649,22.55c-6.233,6.434-13.75,9.65-22.551,9.65c-8.8,0-16.416-3.217-22.85-9.65l-0.35-0.35
		c-6-6.233-9-13.634-9-22.2c-0.233-8.833,2.883-16.467,9.35-22.9c6.434-6.433,14.05-9.55,22.85-9.35
		c8.801-0.2,16.434,2.917,22.9,9.35c6.434,6.434,9.65,14.067,9.65,22.9c0,8.8-3.217,16.417-9.65,22.85
		c-6.467,6.434-14.1,9.65-22.9,9.65c-8.8,0-16.416-3.217-22.85-9.65L1352.73,1544.05z"/>
	<path fill-rule="evenodd" clip-rule="evenodd" fill="#E5D5D5" d="M1357.413,1698.85c0,8.601,3,16.018,9,22.25l0.35,0.301
		c6.434,6.467,14.05,9.699,22.851,9.699c8.833,0,16.35-3.232,22.55-9.699c6.467-6.2,9.7-13.717,9.7-22.551
		c0-8.8-3.233-16.416-9.7-22.85c-6.2-6.233-13.717-9.35-22.55-9.35c8.833,0,16.35,3.116,22.55,9.35c6.467,6.434,9.7,14.05,9.7,22.85
		c0,8.834-3.233,16.351-9.7,22.551c-6.2,6.467-13.717,9.699-22.55,9.699c-8.801,0-16.417-3.232-22.851-9.699l-0.35-0.301
		C1360.413,1714.867,1357.413,1707.45,1357.413,1698.85c-0.2-8.8,2.917-16.416,9.35-22.85c6.434-6.434,14.05-9.55,22.851-9.35
		c8.833-0.2,16.467,2.916,22.899,9.35c6.434,6.434,9.65,14.05,9.65,22.85c0,8.834-3.217,16.467-9.65,22.9
		c-6.433,6.434-14.066,9.65-22.899,9.65c-8.801,0-16.417-3.217-22.851-9.65l-0.35-0.35
		C1360.213,1714.967,1357.213,1707.45,1357.413,1698.85z"/>
	<path fill-rule="evenodd" clip-rule="evenodd" fill="#E5D5D5" d="M801.854,1399.55l-0.3-0.3L801.854,1399.55
		c-6.434,6.467-14.05,9.7-22.851,9.7c-8.8,0-16.433-3.233-22.899-9.7c-6.434-6.433-9.533-14.05-9.3-22.85
		c-0.233-8.8,2.866-16.417,9.3-22.85c6.467-6.467,14.1-9.583,22.899-9.35c8.801,0,16.317,3.117,22.551,9.35
		c6.433,6.433,9.649,14.05,9.649,22.85c0,8.8-3.217,16.316-9.649,22.55c-6.233,6.434-13.75,9.65-22.551,9.65
		c-8.8,0-16.433-3.217-22.899-9.65c-6.2-6.233-9.3-13.75-9.3-22.55c0,8.8,3.1,16.316,9.3,22.55c6.467,6.434,14.1,9.65,22.899,9.65
		c8.801,0,16.317-3.217,22.551-9.65c6.433-6.233,9.649-13.75,9.649-22.55c0-8.8-3.217-16.417-9.649-22.85
		c-6.233-6.233-13.75-9.35-22.551-9.35c8.801-0.233,16.417,2.883,22.851,9.35c6.467,6.433,9.7,14.05,9.7,22.85
		C811.554,1385.5,808.32,1393.117,801.854,1399.55z"/>
	<path fill-rule="evenodd" clip-rule="evenodd" fill="#E5D5D5" d="M713.95,1473.35c0,8.801-3.233,16.434-9.7,22.9
		c-6.434,6.434-14.05,9.65-22.85,9.65s-16.434-3.217-22.9-9.65c-6.434-6.467-9.533-14.1-9.3-22.9c0,8.801,3.1,16.317,9.3,22.551
		c6.467,6.433,14.101,9.649,22.9,9.649s16.316-3.217,22.55-9.649c6.434-6.233,9.65-13.75,9.65-22.551c0-8.8-3.217-16.416-9.65-22.85
		c-6.233-6.233-13.75-9.35-22.55-9.35c8.8,0,16.316,3.116,22.55,9.35c6.434,6.434,9.65,14.05,9.65,22.85
		c0,8.801-3.217,16.317-9.65,22.551c-6.233,6.433-13.75,9.649-22.55,9.649s-16.434-3.217-22.9-9.649
		c-6.2-6.233-9.3-13.75-9.3-22.551c-0.233-8.8,2.866-16.416,9.3-22.85c6.467-6.467,14.101-9.583,22.9-9.35
		c8.8-0.233,16.416,2.883,22.85,9.35C710.717,1456.934,713.95,1464.55,713.95,1473.35h-0.35H713.95z"/>
	<path fill-rule="evenodd" clip-rule="evenodd" fill="#E5D5D5" d="M1209.283,1593.1l0.149-0.199L1209.283,1593.1
		c-0.067-0.066-0.134-0.133-0.2-0.199c-6.434-6.467-9.55-14.101-9.351-22.9c0,8.8,3.117,16.316,9.351,22.55l0.35,0.351
		c6.233,6.199,13.75,9.3,22.55,9.3c8.801,0,16.317-3.217,22.551-9.65c6.433-6.233,9.649-13.75,9.649-22.55
		s-3.217-16.417-9.649-22.85c-6.233-6.233-13.75-9.351-22.551-9.351c8.801,0,16.317,3.117,22.551,9.351
		c6.433,6.433,9.649,14.05,9.649,22.85s-3.217,16.316-9.649,22.55c-6.233,6.434-13.75,9.65-22.551,9.65
		c-8.8,0-16.316-3.101-22.55-9.3l-0.35-0.351c-6.233-6.233-9.351-13.75-9.351-22.55c-0.199-8.8,2.917-16.417,9.351-22.85
		c6.467-6.467,14.1-9.584,22.899-9.351c8.801-0.233,16.417,2.884,22.851,9.351c6.433,6.433,9.649,14.05,9.649,22.85
		s-3.217,16.434-9.649,22.9c-6.434,6.433-14.05,9.649-22.851,9.649C1223.25,1602.55,1215.683,1599.4,1209.283,1593.1z"/>
	<path fill-rule="evenodd" clip-rule="evenodd" fill="#E5D5D5" d="M892.503,2034.25c-0.199-8.6,4-12.783,12.601-12.55h75.35
		c8.601-0.233,12.9,3.95,12.9,12.55v25.15c0,8.566-4.3,12.85-12.9,12.85h-75.35c-8.601,0-12.8-4.283-12.601-12.85V2034.25z"/>
	<path fill-rule="evenodd" clip-rule="evenodd" fill="#E5D5D5" d="M867.703,2059.4c0,8.566-4.3,12.85-12.899,12.85h-75.351
		c-8.6,0-12.8-4.283-12.6-12.85v-25.15c-0.2-8.6,4-12.783,12.6-12.55h75.351c8.6-0.233,12.899,3.95,12.899,12.55V2059.4z"/>
	<path fill-rule="evenodd" clip-rule="evenodd" fill="#E5D5D5" d="M842.253,2097.05h75.4c8.6-0.2,12.9,4,12.9,12.601v75.399
		c0,8.567-4.301,12.851-12.9,12.851h-75.4c-8.6,0-12.783-4.283-12.55-12.851v-75.399
		C829.47,2101.05,833.653,2096.85,842.253,2097.05z"/>
	<path fill-rule="evenodd" clip-rule="evenodd" fill="#E5D5D5" d="M955.354,2097.05h75.35c8.601-0.2,12.9,4,12.9,12.601v75.399
		c0,8.567-4.3,12.851-12.9,12.851h-75.35c-8.601,0-12.8-4.283-12.601-12.851v-75.399
		C942.554,2101.05,946.753,2096.85,955.354,2097.05z"/>
	<path fill-rule="evenodd" clip-rule="evenodd" fill="#E5D5D5" d="M729.153,2097.05h75.4c8.6-0.2,12.899,4,12.899,12.601v75.399
		c0,8.567-4.3,12.851-12.899,12.851h-75.4c-8.566,0-12.75-4.283-12.55-12.851v-75.399
		C716.403,2101.05,720.587,2096.85,729.153,2097.05z"/>
	<path fill-rule="evenodd" clip-rule="evenodd" fill="#E5D5D5" d="M792.003,2210.15h75.4c8.566-0.2,12.85,3.982,12.85,12.55v75.399
		c0,8.601-4.283,12.9-12.85,12.9h-75.4c-8.6,0-12.783-4.3-12.55-12.9V2222.7C779.22,2214.133,783.403,2209.95,792.003,2210.15z"/>
	<path fill-rule="evenodd" clip-rule="evenodd" fill="#E5D5D5" d="M767.203,2222.7v75.399c0,8.601-4.3,12.9-12.899,12.9h-75.4
		c-8.566,0-12.75-4.3-12.55-12.9V2222.7c-0.2-8.567,3.983-12.75,12.55-12.55h75.4C762.903,2209.95,767.203,2214.133,767.203,2222.7z
		"/>
	<path fill-rule="evenodd" clip-rule="evenodd" fill="#E5D5D5" d="M704.054,2323.25h75.399c8.566-0.233,12.851,3.95,12.851,12.55
		v75.05c0,8.601-4.284,12.9-12.851,12.9h-75.399c-8.601,0-12.784-4.3-12.551-12.9v-75.05
		C691.27,2327.2,695.453,2323.017,704.054,2323.25z"/>
	<path fill-rule="evenodd" clip-rule="evenodd" fill="#E5D5D5" d="M905.104,2210.15h75.35c8.601-0.2,12.9,3.982,12.9,12.55v75.399
		c0,8.601-4.3,12.9-12.9,12.9h-75.35c-8.601,0-12.8-4.3-12.601-12.9V2222.7C892.304,2214.133,896.503,2209.95,905.104,2210.15z"/>
	<path fill-rule="evenodd" clip-rule="evenodd" fill="#E5D5D5" d="M905.403,2335.8v75.05c0,8.601-4.3,12.9-12.9,12.9h-75.35
		c-8.6,0-12.8-4.3-12.6-12.9v-75.05c-0.2-8.6,4-12.783,12.6-12.55h75.35C901.104,2323.017,905.403,2327.2,905.403,2335.8z"/>
	<path fill-rule="evenodd" clip-rule="evenodd" fill="#E5D5D5" d="M930.203,2323.25h75.4c8.6-0.233,12.899,3.95,12.899,12.55v75.05
		c0,8.601-4.3,12.9-12.899,12.9h-75.4c-8.6,0-12.783-4.3-12.55-12.9v-75.05C917.42,2327.2,921.604,2323.017,930.203,2323.25z"/>
	<path fill-rule="evenodd" clip-rule="evenodd" fill="#E5D5D5" d="M1232.104,2059.4c0,8.566-4.301,12.85-12.9,12.85h-62.85
		c-8.567,0-12.75-4.283-12.551-12.85v-25.15c-0.199-8.6,3.983-12.783,12.551-12.55h62.85c8.6-0.233,12.9,3.95,12.9,12.55V2059.4z"/>
	<path fill-rule="evenodd" clip-rule="evenodd" fill="#E5D5D5" d="M1256.903,2034.25c-0.233-8.6,3.95-12.783,12.55-12.55h75.05
		c8.601-0.233,12.9,3.95,12.9,12.55v25.15c0,8.566-4.3,12.85-12.9,12.85h-75.05c-8.6,0-12.783-4.283-12.55-12.85V2034.25z"/>
	<path fill-rule="evenodd" clip-rule="evenodd" fill="#E5D5D5" d="M1156.703,2109.65v75.399c0,8.567-4.3,12.851-12.9,12.851h-75.399
		c-8.566,0-12.75-4.283-12.55-12.851v-75.399c-0.2-8.601,3.983-12.801,12.55-12.601h75.399
		C1152.403,2096.85,1156.703,2101.05,1156.703,2109.65z"/>
	<path fill-rule="evenodd" clip-rule="evenodd" fill="#E5D5D5" d="M1181.503,2097.05h75.4c8.6-0.2,12.899,4,12.899,12.601v75.399
		c0,8.567-4.3,12.851-12.899,12.851h-75.4c-8.6,0-12.783-4.283-12.55-12.851v-75.399
		C1168.72,2101.05,1172.903,2096.85,1181.503,2097.05z"/>
	<path fill-rule="evenodd" clip-rule="evenodd" fill="#E5D5D5" d="M1294.604,2097.05h75.05c8.6-0.2,12.899,4,12.899,12.601v75.399
		c0,8.567-4.3,12.851-12.899,12.851h-75.05c-8.601,0-12.801-4.283-12.601-12.851v-75.399
		C1281.803,2101.05,1286.003,2096.85,1294.604,2097.05z"/>
	<path fill-rule="evenodd" clip-rule="evenodd" fill="#E5D5D5" d="M1106.104,2072.25h-75.4c-8.566,0-12.75-4.283-12.55-12.85v-25.15
		c-0.2-8.6,3.983-12.783,12.55-12.55h75.4c8.6-0.233,12.899,3.95,12.899,12.55v25.15
		C1119.003,2067.967,1114.703,2072.25,1106.104,2072.25z"/>
	<path fill-rule="evenodd" clip-rule="evenodd" fill="#E5D5D5" d="M1131.253,2210.15h75.4c8.566-0.2,12.85,3.982,12.85,12.55v75.399
		c0,8.601-4.283,12.9-12.85,12.9h-75.4c-8.6,0-12.783-4.3-12.55-12.9V2222.7C1118.47,2214.133,1122.653,2209.95,1131.253,2210.15z"
		/>
	<path fill-rule="evenodd" clip-rule="evenodd" fill="#E5D5D5" d="M1106.453,2222.7v75.399c0,8.601-4.3,12.9-12.899,12.9h-75.4
		c-8.6,0-12.783-4.3-12.55-12.9V2222.7c-0.233-8.567,3.95-12.75,12.55-12.55h75.4
		C1102.153,2209.95,1106.453,2214.133,1106.453,2222.7z"/>
	<path fill-rule="evenodd" clip-rule="evenodd" fill="#E5D5D5" d="M1043.304,2323.25h75.399c8.566-0.233,12.85,3.95,12.85,12.55
		v75.05c0,8.601-4.283,12.9-12.85,12.9h-75.399c-8.601,0-12.801-4.3-12.601-12.9v-75.05
		C1030.503,2327.2,1034.703,2323.017,1043.304,2323.25z"/>
	<path fill-rule="evenodd" clip-rule="evenodd" fill="#E5D5D5" d="M1244.303,2210.15h75.4c8.4-0.2,12.6,3.982,12.6,12.55v75.399
		c0,8.601-4.199,12.9-12.6,12.9h-75.4c-8.566,0-12.75-4.3-12.55-12.9V2222.7C1231.553,2214.133,1235.736,2209.95,1244.303,2210.15z"
		/>
	<path fill-rule="evenodd" clip-rule="evenodd" fill="#E5D5D5" d="M1156.354,2323.25h75.399c8.601-0.233,12.9,3.95,12.9,12.55v75.05
		c0,8.601-4.3,12.9-12.9,12.9h-75.399c-8.567,0-12.75-4.3-12.551-12.9v-75.05C1143.604,2327.2,1147.786,2323.017,1156.354,2323.25z"
		/>
	<path fill-rule="evenodd" clip-rule="evenodd" fill="#E5D5D5" d="M1269.453,2323.25h75.05c8.601-0.233,12.9,3.95,12.9,12.55v75.05
		c0,8.601-4.3,12.9-12.9,12.9h-75.05c-8.6,0-12.783-4.3-12.55-12.9v-75.05C1256.67,2327.2,1260.854,2323.017,1269.453,2323.25z"/>
	<path fill-rule="evenodd" clip-rule="evenodd" fill="#E5D5D5" d="M1596.153,2059.4c0,8.566-4.3,12.85-12.9,12.85h-75.399
		c-8.601,0-12.783-4.283-12.551-12.85v-25.15c-0.232-8.6,3.95-12.783,12.551-12.55h75.399c8.601-0.233,12.9,3.95,12.9,12.55V2059.4z
		"/>
	<path fill-rule="evenodd" clip-rule="evenodd" fill="#E5D5D5" d="M1470.503,2059.4c0,8.566-4.3,12.85-12.899,12.85h-62.801
		c-8.6,0-12.8-4.283-12.6-12.85v-25.15c-0.2-8.6,4-12.783,12.6-12.55h62.801c8.6-0.233,12.899,3.95,12.899,12.55V2059.4z"/>
	<path fill-rule="evenodd" clip-rule="evenodd" fill="#E5D5D5" d="M1520.403,2097.05h75.399c8.601-0.2,12.9,4,12.9,12.601v75.399
		c0,8.567-4.3,12.851-12.9,12.851h-75.399c-8.567,0-12.75-4.283-12.55-12.851v-75.399
		C1507.653,2101.05,1511.836,2096.85,1520.403,2097.05z"/>
	<path fill-rule="evenodd" clip-rule="evenodd" fill="#E5D5D5" d="M1495.604,2109.65v75.399c0,8.567-4.283,12.851-12.851,12.851
		h-75.399c-8.601,0-12.783-4.283-12.551-12.851v-75.399c-0.232-8.601,3.95-12.801,12.551-12.601h75.399
		C1491.32,2096.85,1495.604,2101.05,1495.604,2109.65z"/>
	<path fill-rule="evenodd" clip-rule="evenodd" fill="#E5D5D5" d="M1445.354,2222.7v75.399c0,8.601-4.301,12.9-12.9,12.9h-75.35
		c-8.601,0-12.801-4.3-12.601-12.9V2222.7c-0.2-8.567,4-12.75,12.601-12.55h75.35
		C1441.053,2209.95,1445.354,2214.133,1445.354,2222.7z"/>
	<path fill-rule="evenodd" clip-rule="evenodd" fill="#E5D5D5" d="M1457.604,2323.25c8.6-0.233,12.899,3.95,12.899,12.55v75.05
		c0,8.601-4.3,12.9-12.899,12.9h-75.4c-8.566,0-12.75-4.3-12.55-12.9v-75.05c-0.2-8.6,3.983-12.783,12.55-12.55H1457.604z"/>
	<path fill-rule="evenodd" clip-rule="evenodd" fill="#E5D5D5" d="M1457.604,2222.7c-0.2-8.567,3.982-12.75,12.55-12.55h75.399
		c8.601-0.2,12.9,3.982,12.9,12.55v75.399c0,8.601-4.3,12.9-12.9,12.9h-75.399c-8.567,0-12.75-4.3-12.55-12.9V2222.7z"/>
	<path fill-rule="evenodd" clip-rule="evenodd" fill="#E5D5D5" d="M1583.253,2210.15h75.4c8.566-0.2,12.85,3.982,12.85,12.55v75.399
		c0,8.601-4.283,12.9-12.85,12.9h-75.4c-8.6,0-12.783-4.3-12.55-12.9V2222.7C1570.47,2214.133,1574.653,2209.95,1583.253,2210.15z"
		/>
	<path fill-rule="evenodd" clip-rule="evenodd" fill="#E5D5D5" d="M1495.303,2323.25h75.4c8.566-0.233,12.85,3.95,12.85,12.55v75.05
		c0,8.601-4.283,12.9-12.85,12.9h-75.4c-8.6,0-12.783-4.3-12.55-12.9v-75.05C1482.52,2327.2,1486.703,2323.017,1495.303,2323.25z"/>
	<path fill-rule="evenodd" clip-rule="evenodd" fill="#E5D5D5" d="M1608.403,2323.25h75.35c8.601-0.233,12.9,3.95,12.9,12.55v75.05
		c0,8.601-4.3,12.9-12.9,12.9h-75.35c-8.601,0-12.8-4.3-12.601-12.9v-75.05C1595.604,2327.2,1599.803,2323.017,1608.403,2323.25z"/>
	<path fill-rule="evenodd" clip-rule="evenodd" fill="#E5D5D5" d="M1922.503,2072.25h-62.85c-8.567,0-12.75-4.283-12.55-12.85
		v-25.15c-0.2-8.6,3.982-12.783,12.55-12.55h62.85c8.601-0.233,12.9,3.95,12.9,12.55v25.15
		C1935.403,2067.967,1931.104,2072.25,1922.503,2072.25z"/>
	<path fill-rule="evenodd" clip-rule="evenodd" fill="#E5D5D5" d="M1822.303,2059.4c0,8.566-4.3,12.85-12.899,12.85h-62.8
		c-8.601,0-12.801-4.283-12.601-12.85v-25.15c-0.2-8.6,4-12.783,12.601-12.55h62.8c8.6-0.233,12.899,3.95,12.899,12.55V2059.4z"/>
	<path fill-rule="evenodd" clip-rule="evenodd" fill="#E5D5D5" d="M1935.403,2109.65v75.399c0,8.567-4.3,12.851-12.9,12.851
		h-175.899c-8.601,0-12.801-4.283-12.601-12.851v-75.399c-0.2-8.601,4-12.801,12.601-12.601h175.899
		C1931.104,2096.85,1935.403,2101.05,1935.403,2109.65z"/>
	<path fill-rule="evenodd" clip-rule="evenodd" fill="#E5D5D5" d="M1709.203,2059.4c0,8.566-4.283,12.85-12.85,12.85h-62.851
		c-8.6,0-12.783-4.283-12.55-12.85v-25.15c-0.233-8.6,3.95-12.783,12.55-12.55h62.851c8.566-0.233,12.85,3.95,12.85,12.55V2059.4z"
		/>
	<path fill-rule="evenodd" clip-rule="evenodd" fill="#E5D5D5" d="M1721.803,2109.65v75.399c0,8.567-4.3,12.851-12.899,12.851h-75.4
		c-8.6,0-12.783-4.283-12.55-12.851v-75.399c-0.233-8.601,3.95-12.801,12.55-12.601h75.4
		C1717.503,2096.85,1721.803,2101.05,1721.803,2109.65z"/>
	<path fill-rule="evenodd" clip-rule="evenodd" fill="#E5D5D5" d="M1772.053,2222.7v75.399c0,8.601-4.3,12.9-12.899,12.9h-62.8
		c-8.601,0-12.801-4.3-12.601-12.9V2222.7c-0.2-8.567,4-12.75,12.601-12.55h62.8
		C1767.753,2209.95,1772.053,2214.133,1772.053,2222.7z"/>
	<path fill-rule="evenodd" clip-rule="evenodd" fill="#E5D5D5" d="M1721.453,2323.25h201.05c8.601-0.233,12.9,3.95,12.9,12.55v75.05
		c0,8.601-4.3,12.9-12.9,12.9h-201.05c-8.6,0-12.783-4.3-12.55-12.9v-75.05C1708.67,2327.2,1712.854,2323.017,1721.453,2323.25z"/>
	<path fill-rule="evenodd" clip-rule="evenodd" fill="#E5D5D5" d="M1935.403,2222.7v75.399c0,8.601-4.3,12.9-12.9,12.9h-125.649
		c-8.601,0-12.783-4.3-12.551-12.9V2222.7c-0.232-8.567,3.95-12.75,12.551-12.55h125.649
		C1931.104,2209.95,1935.403,2214.133,1935.403,2222.7z"/>
	<path fill-rule="evenodd" clip-rule="evenodd" fill="#E5D5D5" d="M1935.403,2448.55v75.4c0,8.6-4.3,12.899-12.9,12.899h-238.75
		c-8.566,0-12.75-4.3-12.55-12.899v-75.4c-0.2-8.566,3.983-12.75,12.55-12.55h238.75
		C1931.104,2435.8,1935.403,2439.983,1935.403,2448.55z"/>
	<path fill-rule="evenodd" clip-rule="evenodd" fill="#E5D5D5" d="M1658.953,2448.55v75.4c0,8.6-4.3,12.899-12.9,12.899h-75.35
		c-8.6,0-12.8-4.3-12.6-12.899v-75.4c-0.2-8.566,4-12.75,12.6-12.55h75.35C1654.653,2435.8,1658.953,2439.983,1658.953,2448.55z"/>
	<path fill-rule="evenodd" clip-rule="evenodd" fill="#E5D5D5" d="M1708.903,2586.75v-12.55c-0.233-8.601,3.95-12.783,12.55-12.55
		h75.4c8.6-0.233,12.899,3.949,12.899,12.55v12.55c0,8.6-4.3,12.9-12.899,12.9h-75.4
		C1712.854,2599.65,1708.67,2595.35,1708.903,2586.75z"/>
	<path fill-rule="evenodd" clip-rule="evenodd" fill="#E5D5D5" d="M1708.903,2637.05v-12.6c-0.233-8.567,3.95-12.75,12.55-12.55
		h75.4c8.6-0.2,12.899,3.982,12.899,12.55v12.6c0,8.567-4.3,12.851-12.899,12.851h-75.4
		C1712.854,2649.9,1708.67,2645.617,1708.903,2637.05z"/>
	<path fill-rule="evenodd" clip-rule="evenodd" fill="#E5D5D5" d="M1684.104,2611.9v25.149c0,8.567-4.301,12.851-12.9,12.851h-75.4
		c-8.566,0-12.75-4.283-12.55-12.851V2611.9c-0.2-8.601,3.983-12.783,12.55-12.551h75.4
		C1679.803,2599.117,1684.104,2603.3,1684.104,2611.9z"/>
	<path fill-rule="evenodd" clip-rule="evenodd" fill="#E5D5D5" d="M1935.403,2611.9v25.149c0,8.567-4.3,12.851-12.9,12.851h-75.399
		c-8.601,0-12.783-4.283-12.551-12.851V2611.9c-0.232-8.601,3.95-12.783,12.551-12.551h75.399
		C1931.104,2599.117,1935.403,2603.3,1935.403,2611.9z"/>
	<path fill-rule="evenodd" clip-rule="evenodd" fill="#E5D5D5" d="M1545.903,2523.95c0,8.6-4.3,12.899-12.9,12.899h-75.399
		c-8.601,0-12.783-4.3-12.551-12.899v-75.4c-0.232-8.566,3.95-12.75,12.551-12.55h75.399c8.601-0.2,12.9,3.983,12.9,12.55V2523.95z"
		/>
	<path fill-rule="evenodd" clip-rule="evenodd" fill="#E5D5D5" d="M1558.104,2561.65c8.6-0.233,12.899,3.949,12.899,12.55v62.85
		c0,8.567-4.3,12.851-12.899,12.851h-75.351c-8.6,0-12.8-4.283-12.6-12.851v-62.85c-0.2-8.601,4-12.783,12.6-12.55H1558.104z"/>
	<path fill-rule="evenodd" clip-rule="evenodd" fill="#E5D5D5" d="M1432.803,2448.55v75.4c0,8.6-4.3,12.899-12.899,12.899h-87.95
		c-8.367,0-12.45-4.3-12.25-12.899v-75.4c-0.2-8.566,3.883-12.75,12.25-12.55h87.95
		C1428.503,2435.8,1432.803,2439.983,1432.803,2448.55z"/>
	<path fill-rule="evenodd" clip-rule="evenodd" fill="#E5D5D5" d="M1307.453,2523.95c0,8.6-4.283,12.899-12.85,12.899h-75.4
		c-8.6,0-12.783-4.3-12.55-12.899v-75.4c-0.233-8.566,3.95-12.75,12.55-12.55h75.4c8.566-0.2,12.85,3.983,12.85,12.55V2523.95z"/>
	<path fill-rule="evenodd" clip-rule="evenodd" fill="#E5D5D5" d="M1445.053,2561.65c8.567-0.233,12.851,3.949,12.851,12.55v62.85
		c0,8.567-4.283,12.851-12.851,12.851h-113.1c-8.367,0-12.45-4.283-12.25-12.851v-62.85c-0.2-8.601,3.883-12.783,12.25-12.55
		H1445.053z"/>
	<path fill-rule="evenodd" clip-rule="evenodd" fill="#E5D5D5" d="M1307.453,2637.05c0,8.567-4.283,12.851-12.85,12.851h-527.75
		c-8.566,0-12.75-4.283-12.55-12.851v-62.85c-0.2-8.601,3.983-12.783,12.55-12.55h527.75c8.566-0.233,12.85,3.949,12.85,12.55
		V2637.05z"/>
	<path fill-rule="evenodd" clip-rule="evenodd" fill="#E5D5D5" d="M1194.403,2448.55v75.4c0,8.6-4.3,12.899-12.9,12.899h-75.399
		c-8.566,0-12.75-4.3-12.55-12.899v-75.4c-0.2-8.566,3.983-12.75,12.55-12.55h75.399
		C1190.104,2435.8,1194.403,2439.983,1194.403,2448.55z"/>
	<path fill-rule="evenodd" clip-rule="evenodd" fill="#E5D5D5" d="M1081.304,2448.55v75.4c0,8.6-4.301,12.899-12.9,12.899h-75.35
		c-8.601,0-12.801-4.3-12.601-12.899v-75.4c-0.2-8.566,4-12.75,12.601-12.55h75.35
		C1077.003,2435.8,1081.304,2439.983,1081.304,2448.55z"/>
	<path fill-rule="evenodd" clip-rule="evenodd" fill="#E5D5D5" d="M968.203,2448.55v75.4c0,8.6-4.283,12.899-12.85,12.899h-75.4
		c-8.6,0-12.783-4.3-12.55-12.899v-75.4c-0.233-8.566,3.95-12.75,12.55-12.55h75.4C963.92,2435.8,968.203,2439.983,968.203,2448.55z
		"/>
	<path fill-rule="evenodd" clip-rule="evenodd" fill="#E5D5D5" d="M855.153,2448.55v75.4c0,8.6-4.3,12.899-12.9,12.899h-75.399
		c-8.566,0-12.75-4.3-12.55-12.899v-75.4c-0.2-8.566,3.983-12.75,12.55-12.55h75.399
		C850.854,2435.8,855.153,2439.983,855.153,2448.55z"/>
	<path fill-rule="evenodd" clip-rule="evenodd" fill="#E5D5D5" d="M729.153,2436c8.6-0.2,12.9,3.983,12.9,12.55v75.4
		c0,8.6-4.301,12.899-12.9,12.899h-75.35c-8.601,0-12.801-4.3-12.601-12.899v-75.4c-0.2-8.566,4-12.75,12.601-12.55H729.153z"/>
	<path fill-rule="evenodd" clip-rule="evenodd" fill="#E5D5D5" d="M742.054,2637.05c0,8.567-4.301,12.851-12.9,12.851h-113.05
		c-8.601,0-12.783-4.283-12.55-12.851v-62.85c-0.233-8.601,3.949-12.783,12.55-12.55h113.05c8.6-0.233,12.9,3.949,12.9,12.55
		V2637.05z"/>
	<path fill-rule="evenodd" clip-rule="evenodd" fill="#E5D5D5" d="M629.003,2448.55v75.4c0,8.6-4.3,12.899-12.899,12.899h-75.101
		c-8.566,0-12.75-4.3-12.55-12.899v-75.4c-0.2-8.566,3.983-12.75,12.55-12.55h75.101
		C624.703,2435.8,629.003,2439.983,629.003,2448.55z"/>
	<path fill-rule="evenodd" clip-rule="evenodd" fill="#E5D5D5" d="M516.203,2448.55v75.4c0,8.6-4.283,12.899-12.85,12.899h-226.2
		c-8.566,0-12.75-4.3-12.55-12.899v-75.4c-0.2-8.566,3.983-12.75,12.55-12.55h226.2C511.92,2435.8,516.203,2439.983,516.203,2448.55
		z"/>
	<path fill-rule="evenodd" clip-rule="evenodd" fill="#E5D5D5" d="M578.703,2561.65c8.4-0.233,12.601,3.949,12.601,12.55v62.85
		c0,8.567-4.2,12.851-12.601,12.851h-75.35c-8.601,0-12.8-4.283-12.601-12.851v-62.85c-0.199-8.601,4-12.783,12.601-12.55H578.703z"
		/>
	<path fill-rule="evenodd" clip-rule="evenodd" fill="#E5D5D5" d="M465.653,2561.65c8.566-0.233,12.85,3.949,12.85,12.55v62.85
		c0,8.567-4.283,12.851-12.85,12.851h-75.4c-8.6,0-12.783-4.283-12.55-12.851v-62.85c-0.233-8.601,3.95-12.783,12.55-12.55H465.653z
		"/>
	<path fill-rule="evenodd" clip-rule="evenodd" fill="#E5D5D5" d="M352.554,2649.9h-75.4c-8.566,0-12.75-4.283-12.55-12.851v-62.85
		c-0.2-8.601,3.983-12.783,12.55-12.55h75.4c8.6-0.233,12.899,3.949,12.899,12.55v62.85
		C365.453,2645.617,361.153,2649.9,352.554,2649.9z"/>
	<path fill-rule="evenodd" clip-rule="evenodd" fill="#D4B8B8" d="M1985.65,2009.1v665.65c-0.233,25.1-12.917,37.767-38.05,38
		H252.05c-25.133-0.233-37.7-12.9-37.7-38V2009.1c0-24.467,11.817-37.017,35.45-37.649H1949.9
		C1973.5,1972.083,1985.417,1984.633,1985.65,2009.1z M590.95,2323.25c-8.367-0.233-12.45,3.95-12.25,12.55v75.05
		c-0.2,8.601,3.883,12.9,12.25,12.9h75.399c8.601,0,12.9-4.3,12.9-12.9v-75.05c0-8.6-4.3-12.783-12.9-12.55H590.95z M566.15,2210.15
		c-8.601-0.2-12.784,3.982-12.551,12.55v75.399c-0.233,8.601,3.95,12.9,12.551,12.9h75.05c8.6,0,12.899-4.3,12.899-12.9V2222.7
		c0-8.567-4.3-12.75-12.899-12.55H566.15z M478.2,2323.25c-8.601-0.233-12.783,3.95-12.55,12.55v75.05
		c-0.233,8.601,3.949,12.9,12.55,12.9H553.6c8.601,0,12.9-4.3,12.9-12.9v-75.05c0-8.6-4.3-12.783-12.9-12.55H478.2z M453.05,2210.15
		c-8.566-0.2-12.75,3.982-12.55,12.55v75.399c-0.2,8.601,3.983,12.9,12.55,12.9h75.4c8.6,0,12.899-4.3,12.899-12.9V2222.7
		c0-8.567-4.3-12.75-12.899-12.55H453.05z M390.25,2097.05c-8.6-0.2-12.783,4-12.55,12.601v75.399
		c-0.233,8.567,3.95,12.851,12.55,12.851h75.4c8.566,0,12.85-4.283,12.85-12.851v-75.399c0-8.601-4.283-12.801-12.85-12.601H390.25z
		 M616.1,2097.05c-8.6-0.2-12.783,4-12.55,12.601v75.399c-0.233,8.567,3.95,12.851,12.55,12.851h75.4
		c8.566,0,12.85-4.283,12.85-12.851v-75.399c0-8.601-4.283-12.801-12.85-12.601H616.1z M503.35,2097.05c-8.6-0.2-12.8,4-12.6,12.601
		v75.399c-0.2,8.567,4,12.851,12.6,12.851H578.7c8.399,0,12.6-4.283,12.6-12.851v-75.399c0-8.601-4.2-12.801-12.6-12.601H503.35z
		 M491.1,2059.4v-25.15c0-8.6-4.3-12.783-12.899-12.55h-75.4c-8.566-0.233-12.75,3.95-12.55,12.55v25.15
		c-0.2,8.566,3.983,12.85,12.55,12.85h75.4C486.8,2072.25,491.1,2067.967,491.1,2059.4z M616.4,2059.4v-25.15
		c0-8.6-4.284-12.783-12.851-12.55h-75.1c-8.601-0.233-12.783,3.95-12.55,12.55v25.15c-0.233,8.566,3.949,12.85,12.55,12.85h75.1
		C612.116,2072.25,616.4,2067.967,616.4,2059.4z M641.2,2034.25v25.15c-0.2,8.566,4,12.85,12.6,12.85h75.351
		c8.6,0,12.899-4.283,12.899-12.85v-25.15c0-8.6-4.3-12.783-12.899-12.55H653.8C645.2,2021.467,641,2025.65,641.2,2034.25z
		 M277.15,2323.25c-8.567-0.233-12.75,3.95-12.551,12.55v75.05c-0.199,8.601,3.983,12.9,12.551,12.9H440.5c8.6,0,12.9-4.3,12.9-12.9
		v-75.05c0-8.6-4.301-12.783-12.9-12.55H277.15z M277.15,2210.15c-8.567-0.2-12.75,3.982-12.551,12.55v75.399
		c-0.199,8.601,3.983,12.9,12.551,12.9H415.4c8.566,0,12.85-4.3,12.85-12.9V2222.7c0-8.567-4.283-12.75-12.85-12.55H277.15z
		 M277.15,2097.05c-8.567-0.2-12.75,4-12.551,12.601v75.399c-0.199,8.567,3.983,12.851,12.551,12.851h75.399
		c8.601,0,12.9-4.283,12.9-12.851v-75.399c0-8.601-4.3-12.801-12.9-12.601H277.15z M264.6,2034.25v25.15
		c-0.199,8.566,3.983,12.85,12.551,12.85h75.399c8.601,0,12.9-4.283,12.9-12.85v-25.15c0-8.6-4.3-12.783-12.9-12.55H277.15
		C268.583,2021.467,264.4,2025.65,264.6,2034.25z M1269.45,2323.25c-8.6-0.233-12.783,3.95-12.55,12.55v75.05
		c-0.233,8.601,3.95,12.9,12.55,12.9h75.05c8.601,0,12.9-4.3,12.9-12.9v-75.05c0-8.6-4.3-12.783-12.9-12.55H1269.45z
		 M1156.351,2323.25c-8.567-0.233-12.75,3.95-12.551,12.55v75.05c-0.199,8.601,3.983,12.9,12.551,12.9h75.399
		c8.601,0,12.9-4.3,12.9-12.9v-75.05c0-8.6-4.3-12.783-12.9-12.55H1156.351z M1244.3,2210.15c-8.566-0.2-12.75,3.982-12.55,12.55
		v75.399c-0.2,8.601,3.983,12.9,12.55,12.9h75.4c8.4,0,12.6-4.3,12.6-12.9V2222.7c0-8.567-4.199-12.75-12.6-12.55H1244.3z
		 M1043.3,2323.25c-8.6-0.233-12.8,3.95-12.6,12.55v75.05c-0.2,8.601,4,12.9,12.6,12.9h75.4c8.566,0,12.85-4.3,12.85-12.9v-75.05
		c0-8.6-4.283-12.783-12.85-12.55H1043.3z M1106.45,2222.7c0-8.567-4.3-12.75-12.9-12.55h-75.399
		c-8.601-0.2-12.784,3.982-12.551,12.55v75.399c-0.233,8.601,3.95,12.9,12.551,12.9h75.399c8.601,0,12.9-4.3,12.9-12.9V2222.7z
		 M1131.25,2210.15c-8.6-0.2-12.783,3.982-12.55,12.55v75.399c-0.233,8.601,3.95,12.9,12.55,12.9h75.4c8.566,0,12.85-4.3,12.85-12.9
		V2222.7c0-8.567-4.283-12.75-12.85-12.55H1131.25z M1106.101,2072.25c8.6,0,12.899-4.283,12.899-12.85v-25.15
		c0-8.6-4.3-12.783-12.899-12.55h-75.4c-8.566-0.233-12.75,3.95-12.55,12.55v25.15c-0.2,8.566,3.983,12.85,12.55,12.85H1106.101z
		 M1294.601,2097.05c-8.601-0.2-12.801,4-12.601,12.601v75.399c-0.2,8.567,4,12.851,12.601,12.851h75.05
		c8.6,0,12.899-4.283,12.899-12.851v-75.399c0-8.601-4.3-12.801-12.899-12.601H1294.601z M1181.5,2097.05
		c-8.6-0.2-12.783,4-12.55,12.601v75.399c-0.233,8.567,3.95,12.851,12.55,12.851h75.4c8.6,0,12.899-4.283,12.899-12.851v-75.399
		c0-8.601-4.3-12.801-12.899-12.601H1181.5z M1156.7,2109.65c0-8.601-4.3-12.801-12.9-12.601H1068.4
		c-8.567-0.2-12.75,4-12.551,12.601v75.399c-0.199,8.567,3.983,12.851,12.551,12.851h75.399c8.601,0,12.9-4.283,12.9-12.851V2109.65
		z M1256.9,2034.25v25.15c-0.233,8.566,3.95,12.85,12.55,12.85h75.05c8.601,0,12.9-4.283,12.9-12.85v-25.15
		c0-8.6-4.3-12.783-12.9-12.55h-75.05C1260.851,2021.467,1256.667,2025.65,1256.9,2034.25z M1232.101,2059.4v-25.15
		c0-8.6-4.301-12.783-12.9-12.55h-62.85c-8.567-0.233-12.75,3.95-12.551,12.55v25.15c-0.199,8.566,3.983,12.85,12.551,12.85h62.85
		C1227.8,2072.25,1232.101,2067.967,1232.101,2059.4z M930.2,2323.25c-8.601-0.233-12.783,3.95-12.55,12.55v75.05
		c-0.233,8.601,3.949,12.9,12.55,12.9h75.399c8.601,0,12.9-4.3,12.9-12.9v-75.05c0-8.6-4.3-12.783-12.9-12.55H930.2z M905.4,2335.8
		c0-8.6-4.301-12.783-12.9-12.55h-75.35c-8.601-0.233-12.801,3.95-12.601,12.55v75.05c-0.2,8.601,4,12.9,12.601,12.9h75.35
		c8.6,0,12.9-4.3,12.9-12.9V2335.8z M905.1,2210.15c-8.6-0.2-12.8,3.982-12.6,12.55v75.399c-0.2,8.601,4,12.9,12.6,12.9h75.351
		c8.6,0,12.899-4.3,12.899-12.9V2222.7c0-8.567-4.3-12.75-12.899-12.55H905.1z M704.05,2323.25c-8.6-0.233-12.783,3.95-12.55,12.55
		v75.05c-0.233,8.601,3.95,12.9,12.55,12.9h75.4c8.566,0,12.85-4.3,12.85-12.9v-75.05c0-8.6-4.283-12.783-12.85-12.55H704.05z
		 M767.2,2222.7c0-8.567-4.3-12.75-12.9-12.55H678.9c-8.567-0.2-12.75,3.982-12.551,12.55v75.399
		c-0.199,8.601,3.983,12.9,12.551,12.9H754.3c8.601,0,12.9-4.3,12.9-12.9V2222.7z M792,2210.15c-8.6-0.2-12.783,3.982-12.55,12.55
		v75.399c-0.233,8.601,3.95,12.9,12.55,12.9h75.4c8.566,0,12.85-4.3,12.85-12.9V2222.7c0-8.567-4.283-12.75-12.85-12.55H792z
		 M729.15,2097.05c-8.567-0.2-12.75,4-12.551,12.601v75.399c-0.199,8.567,3.983,12.851,12.551,12.851h75.399
		c8.601,0,12.9-4.283,12.9-12.851v-75.399c0-8.601-4.3-12.801-12.9-12.601H729.15z M955.35,2097.05c-8.6-0.2-12.8,4-12.6,12.601
		v75.399c-0.2,8.567,4,12.851,12.6,12.851h75.351c8.6,0,12.899-4.283,12.899-12.851v-75.399c0-8.601-4.3-12.801-12.899-12.601
		H955.35z M842.25,2097.05c-8.6-0.2-12.783,4-12.55,12.601v75.399c-0.233,8.567,3.95,12.851,12.55,12.851h75.4
		c8.6,0,12.899-4.283,12.899-12.851v-75.399c0-8.601-4.3-12.801-12.899-12.601H842.25z M867.7,2059.4v-25.15
		c0-8.6-4.3-12.783-12.9-12.55h-75.35c-8.601-0.233-12.8,3.95-12.601,12.55v25.15c-0.199,8.566,4,12.85,12.601,12.85h75.35
		C863.4,2072.25,867.7,2067.967,867.7,2059.4z M892.5,2034.25v25.15c-0.2,8.566,4,12.85,12.6,12.85h75.351
		c8.6,0,12.899-4.283,12.899-12.85v-25.15c0-8.6-4.3-12.783-12.899-12.55H905.1C896.5,2021.467,892.3,2025.65,892.5,2034.25z
		 M352.55,2649.9c8.601,0,12.9-4.283,12.9-12.851v-62.85c0-8.601-4.3-12.783-12.9-12.55H277.15
		c-8.567-0.233-12.75,3.949-12.551,12.55v62.85c-0.199,8.567,3.983,12.851,12.551,12.851H352.55z M465.65,2561.65h-75.4
		c-8.6-0.233-12.783,3.949-12.55,12.55v62.85c-0.233,8.567,3.95,12.851,12.55,12.851h75.4c8.566,0,12.85-4.283,12.85-12.851v-62.85
		C478.5,2565.6,474.217,2561.417,465.65,2561.65z M578.7,2561.65H503.35c-8.6-0.233-12.8,3.949-12.6,12.55v62.85
		c-0.2,8.567,4,12.851,12.6,12.851H578.7c8.399,0,12.6-4.283,12.6-12.851v-62.85C591.3,2565.6,587.1,2561.417,578.7,2561.65z
		 M516.2,2448.55c0-8.566-4.283-12.75-12.851-12.55H277.15c-8.567-0.2-12.75,3.983-12.551,12.55v75.4
		c-0.199,8.6,3.983,12.899,12.551,12.899H503.35c8.567,0,12.851-4.3,12.851-12.899V2448.55z M629,2448.55
		c0-8.566-4.3-12.75-12.9-12.55H541c-8.566-0.2-12.75,3.983-12.55,12.55v75.4c-0.2,8.6,3.983,12.899,12.55,12.899h75.1
		c8.601,0,12.9-4.3,12.9-12.899V2448.55z M742.05,2637.05v-62.85c0-8.601-4.3-12.783-12.899-12.55H616.1
		c-8.6-0.233-12.783,3.949-12.55,12.55v62.85c-0.233,8.567,3.95,12.851,12.55,12.851H729.15
		C737.75,2649.9,742.05,2645.617,742.05,2637.05z M729.15,2436H653.8c-8.6-0.2-12.8,3.983-12.6,12.55v75.4
		c-0.2,8.6,4,12.899,12.6,12.899h75.351c8.6,0,12.899-4.3,12.899-12.899v-75.4C742.05,2439.983,737.75,2435.8,729.15,2436z
		 M855.15,2448.55c0-8.566-4.301-12.75-12.9-12.55h-75.4c-8.566-0.2-12.75,3.983-12.55,12.55v75.4
		c-0.2,8.6,3.983,12.899,12.55,12.899h75.4c8.6,0,12.9-4.3,12.9-12.899V2448.55z M968.2,2448.55c0-8.566-4.283-12.75-12.851-12.55
		H879.95c-8.601-0.2-12.783,3.983-12.55,12.55v75.4c-0.233,8.6,3.949,12.899,12.55,12.899h75.399c8.567,0,12.851-4.3,12.851-12.899
		V2448.55z M1081.3,2448.55c0-8.566-4.3-12.75-12.899-12.55H993.05c-8.6-0.2-12.8,3.983-12.6,12.55v75.4
		c-0.2,8.6,4,12.899,12.6,12.899h75.351c8.6,0,12.899-4.3,12.899-12.899V2448.55z M1194.4,2448.55c0-8.566-4.3-12.75-12.9-12.55
		h-75.399c-8.567-0.2-12.751,3.983-12.551,12.55v75.4c-0.2,8.6,3.983,12.899,12.551,12.899h75.399c8.601,0,12.9-4.3,12.9-12.899
		V2448.55z M1307.45,2637.05v-62.85c0-8.601-4.283-12.783-12.85-12.55H766.85c-8.566-0.233-12.75,3.949-12.55,12.55v62.85
		c-0.2,8.567,3.983,12.851,12.55,12.851h527.751C1303.167,2649.9,1307.45,2645.617,1307.45,2637.05z M1445.05,2561.65h-113.1
		c-8.367-0.233-12.45,3.949-12.25,12.55v62.85c-0.2,8.567,3.883,12.851,12.25,12.851h113.1c8.567,0,12.851-4.283,12.851-12.851
		v-62.85C1457.9,2565.6,1453.617,2561.417,1445.05,2561.65z M1307.45,2523.95v-75.4c0-8.566-4.283-12.75-12.85-12.55h-75.4
		c-8.6-0.2-12.783,3.983-12.55,12.55v75.4c-0.233,8.6,3.95,12.899,12.55,12.899h75.4
		C1303.167,2536.85,1307.45,2532.55,1307.45,2523.95z M1432.8,2448.55c0-8.566-4.3-12.75-12.899-12.55h-87.95
		c-8.367-0.2-12.45,3.983-12.25,12.55v75.4c-0.2,8.6,3.883,12.899,12.25,12.899h87.95c8.6,0,12.899-4.3,12.899-12.899V2448.55z
		 M1558.101,2561.65h-75.351c-8.6-0.233-12.8,3.949-12.6,12.55v62.85c-0.2,8.567,4,12.851,12.6,12.851h75.351
		c8.6,0,12.899-4.283,12.899-12.851v-62.85C1571,2565.6,1566.7,2561.417,1558.101,2561.65z M1545.9,2523.95v-75.4
		c0-8.566-4.3-12.75-12.9-12.55h-75.399c-8.601-0.2-12.783,3.983-12.551,12.55v75.4c-0.232,8.6,3.95,12.899,12.551,12.899H1533
		C1541.601,2536.85,1545.9,2532.55,1545.9,2523.95z M1935.4,2611.9c0-8.601-4.3-12.783-12.9-12.551h-75.399
		c-8.601-0.232-12.783,3.95-12.551,12.551v25.149c-0.232,8.567,3.95,12.851,12.551,12.851h75.399c8.601,0,12.9-4.283,12.9-12.851
		V2611.9z M1684.101,2611.9c0-8.601-4.301-12.783-12.9-12.551h-75.4c-8.566-0.232-12.75,3.95-12.55,12.551v25.149
		c-0.2,8.567,3.983,12.851,12.55,12.851h75.4c8.6,0,12.9-4.283,12.9-12.851V2611.9z M1708.9,2637.05
		c-0.233,8.567,3.95,12.851,12.55,12.851h75.4c8.6,0,12.899-4.283,12.899-12.851v-12.6c0-8.567-4.3-12.75-12.899-12.55h-75.4
		c-8.6-0.2-12.783,3.982-12.55,12.55V2637.05z M1708.9,2586.75c-0.233,8.6,3.95,12.9,12.55,12.9h75.4
		c8.6,0,12.899-4.301,12.899-12.9v-12.55c0-8.601-4.3-12.783-12.899-12.55h-75.4c-8.6-0.233-12.783,3.949-12.55,12.55V2586.75z
		 M1658.95,2448.55c0-8.566-4.3-12.75-12.9-12.55h-75.35c-8.6-0.2-12.8,3.983-12.6,12.55v75.4c-0.2,8.6,4,12.899,12.6,12.899h75.35
		c8.601,0,12.9-4.3,12.9-12.899V2448.55z M1935.4,2448.55c0-8.566-4.3-12.75-12.9-12.55h-238.75c-8.566-0.2-12.75,3.983-12.55,12.55
		v75.4c-0.2,8.6,3.983,12.899,12.55,12.899h238.75c8.601,0,12.9-4.3,12.9-12.899V2448.55z M1935.4,2222.7
		c0-8.567-4.3-12.75-12.9-12.55h-125.649c-8.601-0.2-12.783,3.982-12.551,12.55v75.399c-0.232,8.601,3.95,12.9,12.551,12.9H1922.5
		c8.601,0,12.9-4.3,12.9-12.9V2222.7z M1721.45,2323.25c-8.6-0.233-12.783,3.95-12.55,12.55v75.05
		c-0.233,8.601,3.95,12.9,12.55,12.9h201.05c8.601,0,12.9-4.3,12.9-12.9v-75.05c0-8.6-4.3-12.783-12.9-12.55H1721.45z
		 M1772.05,2222.7c0-8.567-4.3-12.75-12.899-12.55h-62.8c-8.601-0.2-12.801,3.982-12.601,12.55v75.399
		c-0.2,8.601,4,12.9,12.601,12.9h62.8c8.6,0,12.899-4.3,12.899-12.9V2222.7z M1721.8,2109.65c0-8.601-4.3-12.801-12.899-12.601
		h-75.4c-8.6-0.2-12.783,4-12.55,12.601v75.399c-0.233,8.567,3.95,12.851,12.55,12.851h75.4c8.6,0,12.899-4.283,12.899-12.851
		V2109.65z M1709.2,2059.4v-25.15c0-8.6-4.283-12.783-12.85-12.55H1633.5c-8.6-0.233-12.783,3.95-12.55,12.55v25.15
		c-0.233,8.566,3.95,12.85,12.55,12.85h62.851C1704.917,2072.25,1709.2,2067.967,1709.2,2059.4z M1935.4,2109.65
		c0-8.601-4.3-12.801-12.9-12.601h-175.899c-8.601-0.2-12.801,4-12.601,12.601v75.399c-0.2,8.567,4,12.851,12.601,12.851H1922.5
		c8.601,0,12.9-4.283,12.9-12.851V2109.65z M1822.3,2059.4v-25.15c0-8.6-4.3-12.783-12.899-12.55h-62.8
		c-8.601-0.233-12.801,3.95-12.601,12.55v25.15c-0.2,8.566,4,12.85,12.601,12.85h62.8C1818,2072.25,1822.3,2067.967,1822.3,2059.4z
		 M1922.5,2072.25c8.601,0,12.9-4.283,12.9-12.85v-25.15c0-8.6-4.3-12.783-12.9-12.55h-62.85c-8.567-0.233-12.75,3.95-12.55,12.55
		v25.15c-0.2,8.566,3.982,12.85,12.55,12.85H1922.5z M1608.4,2323.25c-8.601-0.233-12.8,3.95-12.601,12.55v75.05
		c-0.199,8.601,4,12.9,12.601,12.9h75.35c8.601,0,12.9-4.3,12.9-12.9v-75.05c0-8.6-4.3-12.783-12.9-12.55H1608.4z M1495.3,2323.25
		c-8.6-0.233-12.783,3.95-12.55,12.55v75.05c-0.233,8.601,3.95,12.9,12.55,12.9h75.4c8.566,0,12.85-4.3,12.85-12.9v-75.05
		c0-8.6-4.283-12.783-12.85-12.55H1495.3z M1583.25,2210.15c-8.6-0.2-12.783,3.982-12.55,12.55v75.399
		c-0.233,8.601,3.95,12.9,12.55,12.9h75.4c8.566,0,12.85-4.3,12.85-12.9V2222.7c0-8.567-4.283-12.75-12.85-12.55H1583.25z
		 M1457.601,2222.7v75.399c-0.2,8.601,3.982,12.9,12.55,12.9h75.399c8.601,0,12.9-4.3,12.9-12.9V2222.7
		c0-8.567-4.3-12.75-12.9-12.55h-75.399C1461.583,2209.95,1457.4,2214.133,1457.601,2222.7z M1457.601,2323.25h-75.4
		c-8.566-0.233-12.75,3.95-12.55,12.55v75.05c-0.2,8.601,3.983,12.9,12.55,12.9h75.4c8.6,0,12.899-4.3,12.899-12.9v-75.05
		C1470.5,2327.2,1466.2,2323.017,1457.601,2323.25z M1445.351,2222.7c0-8.567-4.301-12.75-12.9-12.55h-75.35
		c-8.601-0.2-12.801,3.982-12.601,12.55v75.399c-0.2,8.601,4,12.9,12.601,12.9h75.35c8.6,0,12.9-4.3,12.9-12.9V2222.7z
		 M1495.601,2109.65c0-8.601-4.283-12.801-12.851-12.601h-75.399c-8.601-0.2-12.783,4-12.551,12.601v75.399
		c-0.232,8.567,3.95,12.851,12.551,12.851h75.399c8.567,0,12.851-4.283,12.851-12.851V2109.65z M1520.4,2097.05
		c-8.567-0.2-12.75,4-12.55,12.601v75.399c-0.2,8.567,3.982,12.851,12.55,12.851h75.399c8.601,0,12.9-4.283,12.9-12.851v-75.399
		c0-8.601-4.3-12.801-12.9-12.601H1520.4z M1470.5,2059.4v-25.15c0-8.6-4.3-12.783-12.899-12.55H1394.8
		c-8.6-0.233-12.8,3.95-12.6,12.55v25.15c-0.2,8.566,4,12.85,12.6,12.85h62.801C1466.2,2072.25,1470.5,2067.967,1470.5,2059.4z
		 M1596.15,2059.4v-25.15c0-8.6-4.3-12.783-12.9-12.55h-75.399c-8.601-0.233-12.783,3.95-12.551,12.55v25.15
		c-0.232,8.566,3.95,12.85,12.551,12.85h75.399C1591.851,2072.25,1596.15,2067.967,1596.15,2059.4z"/>
	
		<path fill-rule="evenodd" clip-rule="evenodd" fill="none" stroke="#FF0000" stroke-width="10" stroke-linecap="round" stroke-linejoin="round" stroke-miterlimit="3" d="
		M1343.15,1521.7c-0.233-8.833,2.883-16.467,9.35-22.9c6.434-6.433,14.05-9.55,22.85-9.35 M1352,1544.05l-58.5,58.15l73.8,73.8
		c6.434-6.434,14.05-9.55,22.851-9.35 M1357.95,1698.85c-0.2-8.8,2.917-16.416,9.35-22.85 M1343.15,1521.7c0,8.566,3,15.967,9,22.2
		l0.35,0.35c6.434,6.434,14.05,9.65,22.85,9.65c8.801,0,16.317-3.217,22.551-9.65c6.433-6.233,9.649-13.75,9.649-22.55
		c0-8.833-3.217-16.467-9.649-22.9c-6.233-6.233-13.75-9.35-22.551-9.35 M1352,1544.05l0.15-0.149 M800.9,1399.55l73.8,73.8
		L1068,1666.65V1956.6 M745.85,1376.7c0,8.8,3.1,16.316,9.3,22.55c6.467,6.434,14.1,9.65,22.9,9.65c8.8,0,16.317-3.217,22.55-9.65
		c6.433-6.233,9.65-13.75,9.65-22.55c0-8.8-3.217-16.417-9.65-22.85c-6.233-6.233-13.75-9.35-22.55-9.35
		c-8.8-0.233-16.433,2.883-22.9,9.35C748.717,1360.283,745.617,1367.9,745.85,1376.7z M649.2,1473.35
		c-0.233-8.8,2.866-16.416,9.3-22.85c6.467-6.467,14.1-9.583,22.9-9.35 M713.95,1473.35H874.7 M649.2,1473.35
		c0,8.801,3.1,16.317,9.3,22.551c6.467,6.433,14.1,9.649,22.9,9.649c8.8,0,16.317-3.217,22.55-9.649
		c6.433-6.233,9.65-13.75,9.65-22.551c0-8.8-3.217-16.416-9.65-22.85c-6.233-6.233-13.75-9.35-22.55-9.35 M713.95,1473.35h-0.35
		 M800.9,1399.55l-0.3-0.3 M1196.85,1570c-0.199-8.8,2.917-16.417,9.351-22.85c6.467-6.467,14.1-9.584,22.899-9.351 M1206.4,1593.1
		l-106.2,105.75v257.75 M1196.85,1570c0,8.8,3.117,16.316,9.351,22.55l0.35,0.351c6.233,6.199,13.75,9.3,22.55,9.3
		c8.801,0,16.317-3.217,22.551-9.65c6.433-6.233,9.649-13.75,9.649-22.55s-3.217-16.417-9.649-22.85
		c-6.233-6.233-13.75-9.351-22.551-9.351 M1206.4,1593.1l0.149-0.199 M1132.45,1956.6v-193.3l161.05-161.1 M1357.95,1698.85
		c0,8.601,3,16.018,9,22.25l0.35,0.301c6.434,6.467,14.05,9.699,22.851,9.699c8.833,0,16.35-3.232,22.55-9.699
		c6.467-6.2,9.7-13.717,9.7-22.551c0-8.8-3.233-16.416-9.7-22.85c-6.2-6.233-13.717-9.35-22.55-9.35"/>
	
		<path fill-rule="evenodd" clip-rule="evenodd" fill="none" stroke="#3567B1" stroke-width="10" stroke-linecap="round" stroke-linejoin="round" stroke-miterlimit="3" d="
		M1537.85,1422.7l68.5-68.55l83.45-83.45l-0.35-0.3c-6.233-6.233-9.351-13.75-9.351-22.55c0-8.833,3.117-16.467,9.351-22.9
		c6.467-6.233,14.1-9.35,22.899-9.35c8.801,0,16.317,3.117,22.551,9.35c6.433,6.433,9.649,14.066,9.649,22.9
		c0,8.8-3.217,16.316-9.649,22.55c-6.233,6.434-13.75,9.65-22.551,9.65c-8.8,0-16.316-3.116-22.55-9.35 M296.25,344.65l37.2-37.25
		c2.8-2.133,6.017-3.2,9.65-3.2c4.3,0,7.95,1.4,10.95,4.2l684.65,674.95l2.9,3.2c3,2.367,6.433,3.55,10.3,3.55c0.2,0,0.417,0,0.65,0
		c4.3-0.233,7.833-1.85,10.6-4.85c3.233-3,4.85-6.533,4.85-10.6V667.9 M270.45,370.4l25.8-25.75 M270.45,370.4L221,419.85
		c6.233,6.233,9.35,13.75,9.35,22.55c0,8.8-3.217,16.317-9.65,22.55c-6.233,6.433-13.75,9.65-22.55,9.65
		c-8.8,0-16.433-3.217-22.9-9.65c-6.233-6.233-9.35-13.75-9.35-22.55c0-8.8,3.117-16.417,9.35-22.85
		c6.467-6.233,14.1-9.35,22.9-9.35c8.8,0,16.317,3.117,22.55,9.35l0.3,0.3 M876.15,1119.8l25.65,25.85l56,56.45l3.9,3.85
		c2.767,1.933,5.883,2.9,9.35,2.9c3.634,0,6.85-1.067,9.65-3.2c0.6-0.4,1.116-0.917,1.55-1.55c0-0.034,0.017-0.067,0.05-0.1
		c0.3-0.3,0.583-0.566,0.85-0.8l0.3-0.3c0.4-0.4,0.767-0.783,1.1-1.15l109.2-118.25l4.2-4.5c0.667-1.066,1.1-2.033,1.3-2.9
		c0.633-1.5,0.95-3.1,0.95-4.8V667.9 M1537.85,1422.7l-24.3,24.25c-3,2.566-6.533,3.85-10.6,3.85c-3.434,0-6.55-0.967-9.351-2.899
		c-0.866-0.634-1.616-1.283-2.25-1.95c-0.666-0.634-1.217-1.267-1.649-1.9l-353.101-353.1c-1.267-1.3-2.232-2.817-2.899-4.55
		c-0.833-1.933-1.25-3.867-1.25-5.8V667.9 M1489.7,1444.05l3.899,3.851 M1041.6,986.55c-0.434-0.433-0.867-0.866-1.3-1.3
		c-0.633-0.633-1.167-1.267-1.6-1.9 M1097.95,1079c-0.634,1.066-1.483,2.033-2.55,2.9c-0.667,0.667-1.217,1.2-1.65,1.6
		 M876.15,1119.8l-42.7-43.05c-0.2,0-0.417,0.117-0.65,0.35c-6.233,6.433-13.75,9.65-22.55,9.65s-16.417-3.217-22.85-9.65
		c-6.233-6.233-9.35-13.75-9.35-22.55c0-8.833,3.117-16.466,9.35-22.9c6.434-6.233,14.05-9.35,22.85-9.35s16.316,3.117,22.55,9.35
		c6.467,6.434,9.7,14.067,9.7,22.9c0,8.567-3.017,15.967-9.05,22.2 M982.25,1204.1l0.9-0.9 M961.7,1205.95
		c-0.867-0.634-1.617-1.284-2.25-1.95c-0.667-0.633-1.217-1.267-1.65-1.9"/>
</g>
</svg>
