<?xml version="1.0" encoding="utf-8"?>
<!-- Generator: Adobe Illustrator 15.0.0, SVG Export Plug-In . SVG Version: 6.00 Build 0)  -->
<!DOCTYPE svg PUBLIC "-//W3C//DTD SVG 1.1//EN" "http://www.w3.org/Graphics/SVG/1.1/DTD/svg11.dtd">
<svg version="1.1" id="Layer_1" xmlns="http://www.w3.org/2000/svg" xmlns:xlink="http://www.w3.org/1999/xlink" x="0px" y="0px"
	 width="100px" height="100px" viewBox="0 0 100 100" enable-background="new 0 0 100 100" xml:space="preserve">
<path fill-rule="evenodd" clip-rule="evenodd" fill="#3567B1" d="M90.42,36.8c-1.1-0.71-2.27-1.35-3.49-1.92
	c0.101-0.2,0.15-0.43,0.15-0.66V20.77c0-6.46-3.561-10.02-10.021-10.02H10.25c-6.46,0-10.02,3.56-10.02,10.02v33.41
	c0,6.46,3.56,10.021,10.02,10.021h31.73v13.99L26.2,86.09c-0.82,0.4-1.15,1.41-0.74,2.24c0.41,0.82,1.41,1.15,2.24,0.74l14.28-7.141
	v5.65c0,0.92,0.76,1.67,1.67,1.67c0.92,0,1.67-0.75,1.67-1.67v-5.65L59.6,89.07c0.25,0.13,0.5,0.18,0.761,0.18
	c0.609,0,1.199-0.33,1.479-0.92c0.42-0.83,0.09-1.84-0.729-2.24L45.32,78.19V64.2l8.43-0.01c2.92,1.64,6.18,2.81,9.78,3.51
	c0.779,1.29,1.79,2.479,3.01,3.59h-0.09c3.68,3.63,8.149,5.43,13.45,5.43c2.39,0,4.59-0.359,6.6-1.08c0.33-0.17,0.58-0.39,0.75-0.67
	c0.21-0.279,0.33-0.59,0.33-0.92c0-0.38-0.12-0.72-0.33-1c-0.22-0.29-0.5-0.47-0.84-0.59c-2.84-0.95-5.391-2.5-7.68-4.67H78.64
	c4.46-0.84,8.391-2.37,11.78-4.6c5.68-3.62,8.47-8.011,8.35-13.19C98.89,44.82,96.1,40.43,90.42,36.8z M10.25,60.86
	c-4.63,0-6.68-2.061-6.68-6.681V20.77c0-4.63,2.05-6.68,6.68-6.68h66.81c4.62,0,6.681,2.05,6.681,6.68v12.81
	c-3.76-1.3-7.94-1.95-12.53-1.95c-7.28,0-13.51,1.63-18.72,4.92c-0.3-0.45-0.82-0.75-1.4-0.75H26.95c-0.92,0-1.67,0.75-1.67,1.67
	c0,0.92,0.75,1.67,1.67,1.67h22.02c-1.83,1.59-3.16,3.29-4.01,5.15c-0.2-0.09-0.42-0.14-0.64-0.14h-0.67
	c-0.91,0-1.67,0.76-1.67,1.67c0,0.92,0.76,1.67,1.67,1.67h0.24c-0.15,0.82-0.24,1.66-0.24,2.51c-0.01,0.87,0.07,1.7,0.22,2.52
	c-0.07-0.02-0.15-0.02-0.22-0.02h-16.7c-0.92,0-1.67,0.76-1.67,1.68c0,0.91,0.75,1.67,1.67,1.67h16.7c0.44,0,0.82-0.17,1.12-0.439
	c0.89,1.96,2.27,3.78,4.2,5.45H10.25z M88.58,60.44c-3.84,2.449-8.32,3.92-13.44,4.42c-0.39,0.05-0.79,0.26-1.17,0.59
	c-0.29,0.28-0.42,0.62-0.42,1c0,0.45,0.12,0.84,0.33,1.17c0.79,0.84,1.59,1.67,2.43,2.51c1.33,1.28,2.721,2.37,4.171,3.25H79.9
	c-4.301,0-7.94-1.47-10.94-4.42c-1.17-1.12-2.12-2.31-2.84-3.59c-0.12-0.22-0.3-0.39-0.59-0.51c-0.16-0.16-0.38-0.25-0.66-0.25
	c-2.51-0.45-4.851-1.13-7.021-2.08c-1.39-0.62-2.71-1.311-3.92-2.09C49.47,57.55,47.21,54.06,47.16,50c0-1.45,0.3-2.84,0.92-4.18
	c1.05-2.33,3.01-4.42,5.85-6.26c4.79-3.06,10.551-4.59,17.28-4.59c5.35,0,10.07,0.95,14.2,2.84c1.12,0.5,2.17,1.08,3.17,1.75
	c4.46,2.89,6.72,6.38,6.77,10.44C95.3,54.06,93.04,57.55,88.58,60.44z"/>
<path fill="#3567B1" d="M18.601,19.101H10.25c-0.918,0-1.67,0.751-1.67,1.67c0,0.918,0.752,1.67,1.67,1.67h8.351
	c0.918,0,1.67-0.752,1.67-1.67C20.271,19.852,19.519,19.101,18.601,19.101z M43.653,19.101H26.951c-0.918,0-1.67,0.751-1.67,1.67
	c0,0.918,0.752,1.67,1.67,1.67h16.702c0.918,0,1.67-0.752,1.67-1.67C45.324,19.852,44.572,19.101,43.653,19.101z M77.058,19.101
	H52.005c-0.919,0-1.67,0.751-1.67,1.67c0,0.918,0.751,1.67,1.67,1.67h25.053c0.919,0,1.67-0.752,1.67-1.67
	C78.728,19.852,77.977,19.101,77.058,19.101z M26.951,27.452H10.25c-0.918,0-1.67,0.751-1.67,1.67c0,0.918,0.752,1.67,1.67,1.67
	h16.702c0.918,0,1.67-0.752,1.67-1.67C28.622,28.203,27.87,27.452,26.951,27.452z M52.005,27.452H35.302
	c-0.918,0-1.67,0.751-1.67,1.67c0,0.918,0.752,1.67,1.67,1.67h16.703c0.918,0,1.67-0.752,1.67-1.67
	C53.675,28.203,52.923,27.452,52.005,27.452z M77.058,27.452H60.355c-0.918,0-1.67,0.751-1.67,1.67c0,0.918,0.752,1.67,1.67,1.67
	h16.702c0.919,0,1.67-0.752,1.67-1.67C78.728,28.203,77.977,27.452,77.058,27.452z M18.601,35.803H10.25
	c-0.918,0-1.67,0.751-1.67,1.67c0,0.918,0.752,1.67,1.67,1.67h8.351c0.918,0,1.67-0.752,1.67-1.67
	C20.271,36.554,19.519,35.803,18.601,35.803z M35.302,44.154H10.25c-0.918,0-1.67,0.751-1.67,1.67c0,0.918,0.752,1.67,1.67,1.67
	h25.053c0.918,0,1.67-0.752,1.67-1.67C36.973,44.905,36.221,44.154,35.302,44.154z M18.601,52.505H10.25
	c-0.918,0-1.67,0.752-1.67,1.671c0,0.918,0.752,1.67,1.67,1.67h8.351c0.918,0,1.67-0.752,1.67-1.67
	C20.271,53.257,19.519,52.505,18.601,52.505z"/>
</svg>
