<?xml version="1.0" encoding="utf-8"?>
<!-- Generator: Adobe Illustrator 15.0.0, SVG Export Plug-In . SVG Version: 6.00 Build 0)  -->
<!DOCTYPE svg PUBLIC "-//W3C//DTD SVG 1.1//EN" "http://www.w3.org/Graphics/SVG/1.1/DTD/svg11.dtd">
<svg version="1.1" id="Layer_1" xmlns="http://www.w3.org/2000/svg" xmlns:xlink="http://www.w3.org/1999/xlink" x="0px" y="0px"
	 width="100px" height="100px" viewBox="0 0 100 100" enable-background="new 0 0 100 100" xml:space="preserve">
<path fill-rule="evenodd" clip-rule="evenodd" fill="#3567B1" d="M89.241,60.854c-0.481-0.004-0.892-0.181-1.23-0.528
	c-0.347-0.339-0.523-0.75-0.527-1.23c0.004-0.481,0.18-0.892,0.527-1.231c0.339-0.348,0.749-0.523,1.23-0.527h8.789
	c0.482,0.003,0.892,0.179,1.231,0.527c0.347,0.339,0.523,0.75,0.527,1.231c-0.004,0.48-0.18,0.891-0.527,1.23
	c-0.339,0.347-0.749,0.523-1.231,0.528H89.241z M71.664,69.643c-0.481-0.004-0.892-0.18-1.23-0.528
	c-0.347-0.339-0.523-0.75-0.527-1.23c0.004-0.481,0.18-0.892,0.527-1.231c0.339-0.348,0.749-0.523,1.23-0.527h26.366
	c0.482,0.003,0.892,0.179,1.231,0.527c0.347,0.339,0.523,0.75,0.527,1.231c-0.004,0.48-0.18,0.891-0.527,1.23
	c-0.339,0.348-0.749,0.523-1.231,0.528H71.664z M61.644,57.865c0.339-0.348,0.75-0.523,1.231-0.527h17.577
	c0.481,0.003,0.892,0.179,1.231,0.527c0.347,0.339,0.522,0.75,0.527,1.231c-0.004,0.48-0.18,0.891-0.527,1.23
	c-0.339,0.347-0.75,0.523-1.231,0.528H62.875c-0.481-0.004-0.892-0.181-1.231-0.528c-0.347-0.339-0.522-0.75-0.527-1.23
	C61.122,58.615,61.297,58.204,61.644,57.865z M69.906,32.73c0.004-0.481,0.18-0.892,0.527-1.23c0.339-0.348,0.749-0.523,1.23-0.527
	h26.366c0.482,0.003,0.892,0.179,1.231,0.527c0.347,0.339,0.523,0.749,0.527,1.23c-0.004,0.481-0.18,0.891-0.527,1.23
	c-0.339,0.348-0.749,0.523-1.231,0.528H71.664c-0.481-0.004-0.892-0.18-1.23-0.528C70.086,33.621,69.91,33.211,69.906,32.73z
	 M80.452,43.276c-0.481-0.004-0.892-0.18-1.23-0.528c-0.347-0.339-0.523-0.749-0.527-1.229c0.004-0.482,0.181-0.892,0.527-1.231
	c0.339-0.348,0.749-0.523,1.23-0.527h17.577c0.482,0.003,0.892,0.179,1.231,0.527c0.347,0.339,0.523,0.749,0.527,1.231
	c-0.004,0.48-0.18,0.891-0.527,1.229c-0.339,0.348-0.749,0.524-1.231,0.528H80.452z M78.694,50.308
	c0.004-0.481,0.181-0.892,0.527-1.231c0.339-0.348,0.749-0.523,1.23-0.527h17.577c0.482,0.003,0.892,0.179,1.231,0.527
	c0.347,0.339,0.523,0.75,0.527,1.231c-0.004,0.48-0.18,0.891-0.527,1.229c-0.339,0.348-0.749,0.524-1.231,0.528H80.452
	c-0.481-0.004-0.892-0.18-1.23-0.528C78.875,51.198,78.699,50.788,78.694,50.308z M45.298,69.643
	c-0.481-0.004-0.892-0.18-1.231-0.528c-0.347-0.339-0.522-0.75-0.527-1.23c0.004-0.481,0.18-0.892,0.527-1.231
	c0.339-0.348,0.75-0.523,1.231-0.527h17.577c0.481,0.003,0.892,0.179,1.231,0.527c0.347,0.339,0.522,0.75,0.527,1.231
	c-0.004,0.48-0.18,0.891-0.527,1.23c-0.339,0.348-0.75,0.523-1.231,0.528H45.298z M26.49,66.654c0.339-0.348,0.75-0.523,1.231-0.527
	h8.789c0.481,0.003,0.892,0.179,1.23,0.527c0.347,0.339,0.523,0.75,0.527,1.231c-0.004,0.48-0.181,0.891-0.527,1.23
	c-0.339,0.348-0.749,0.523-1.23,0.528h-8.789c-0.481-0.004-0.892-0.18-1.231-0.528c-0.347-0.339-0.522-0.75-0.527-1.23
	C25.967,67.403,26.143,66.993,26.49,66.654z M27.721,60.854c-0.481-0.004-0.892-0.181-1.231-0.528
	c-0.347-0.339-0.522-0.75-0.527-1.23c0.004-0.481,0.18-0.892,0.527-1.231c0.339-0.348,0.75-0.523,1.231-0.527h26.366
	c0.481,0.003,0.892,0.179,1.231,0.527c0.347,0.339,0.522,0.75,0.527,1.231c-0.004,0.48-0.18,0.891-0.527,1.23
	c-0.339,0.347-0.75,0.523-1.231,0.528H27.721z M25.963,50.308c0.004-0.481,0.18-0.892,0.527-1.231
	c0.339-0.348,0.75-0.523,1.231-0.527h8.789c0.481,0.003,0.892,0.179,1.23,0.527c0.347,0.339,0.523,0.75,0.527,1.231
	c-0.004,0.48-0.181,0.891-0.527,1.229c-0.339,0.348-0.749,0.524-1.23,0.528h-8.789c-0.481-0.004-0.892-0.18-1.231-0.528
	C26.143,51.198,25.967,50.788,25.963,50.308z M36.509,30.973c0.481,0.003,0.892,0.179,1.23,0.527
	c0.347,0.339,0.523,0.749,0.527,1.23c-0.004,0.481-0.181,0.891-0.527,1.23c-0.339,0.348-0.749,0.523-1.23,0.528h-8.789
	c-0.481-0.004-0.892-0.18-1.231-0.528c-0.347-0.339-0.522-0.749-0.527-1.23c0.004-0.481,0.18-0.892,0.527-1.23
	c0.339-0.348,0.75-0.523,1.231-0.527H36.509z M54.086,43.276c-0.481-0.004-0.892-0.18-1.231-0.528
	c-0.347-0.339-0.522-0.749-0.527-1.229c0.004-0.482,0.18-0.892,0.527-1.231c0.339-0.348,0.75-0.523,1.231-0.527h17.577
	c0.481,0.003,0.892,0.179,1.231,0.527c0.347,0.339,0.522,0.749,0.527,1.231c-0.004,0.48-0.18,0.891-0.527,1.229
	c-0.339,0.348-0.75,0.524-1.231,0.528H54.086z M46.528,42.749c-0.339,0.348-0.749,0.524-1.23,0.528H27.721
	c-0.481-0.004-0.892-0.18-1.231-0.528c-0.347-0.339-0.522-0.749-0.527-1.229c0.004-0.482,0.18-0.892,0.527-1.231
	c0.339-0.348,0.75-0.523,1.231-0.527h17.577c0.481,0.003,0.892,0.179,1.23,0.527c0.347,0.339,0.523,0.749,0.527,1.231
	C47.051,42,46.875,42.41,46.528,42.749z M43.54,50.308c0.004-0.481,0.18-0.892,0.527-1.231c0.339-0.348,0.75-0.523,1.231-0.527
	h26.366c0.481,0.003,0.892,0.179,1.231,0.527c0.347,0.339,0.522,0.75,0.527,1.231c-0.004,0.48-0.18,0.891-0.527,1.229
	c-0.339,0.348-0.75,0.524-1.231,0.528H45.298c-0.481-0.004-0.892-0.18-1.231-0.528C43.72,51.198,43.544,50.788,43.54,50.308z
	 M44.067,31.5c0.339-0.348,0.75-0.523,1.231-0.527h17.577c0.481,0.003,0.892,0.179,1.231,0.527c0.347,0.339,0.522,0.749,0.527,1.23
	c-0.004,0.481-0.18,0.891-0.527,1.23c-0.339,0.348-0.75,0.523-1.231,0.528H45.298c-0.481-0.004-0.892-0.18-1.231-0.528
	c-0.347-0.339-0.522-0.749-0.527-1.23C43.544,32.249,43.72,31.838,44.067,31.5z M36.509,7.507c-0.059,0-0.118,0-0.176,0
	C27.152,7.51,19.331,9.121,12.867,12.34c-5.513,2.698-8.531,5.92-9.052,9.667c-0.012,0.055-0.027,0.114-0.044,0.176
	c-0.033,0.175-0.047,0.351-0.044,0.527v23.202C4.988,68.641,15.9,84.139,36.465,92.405c9.921-3.907,17.611-9.502,23.07-16.787
	c0.288-0.394,0.669-0.628,1.142-0.703c0.484-0.063,0.924,0.053,1.318,0.351c0.394,0.288,0.628,0.668,0.703,1.143
	c0.063,0.484-0.055,0.923-0.351,1.318c-5.924,7.932-14.332,13.981-25.224,18.149c-0.202,0.083-0.407,0.127-0.615,0.132
	c-0.059,0-0.118,0-0.176,0c-0.224-0.003-0.443-0.048-0.659-0.132C13.366,87.11,1.545,70.483,0.212,46v-23.29
	c0.002-0.351,0.032-0.703,0.087-1.055c0.415-4.924,4.077-9.084,10.986-12.48c6.896-3.459,15.245-5.188,25.047-5.185
	c0.059,0,0.118,0,0.176,0c9.862-0.003,18.241,1.725,25.135,5.185h-0.043c6.976,3.383,10.711,7.528,11.206,12.437
	c0.004,0.076,0.004,0.149,0,0.22c0,0.292,0,0.586,0,0.879v1.23c-0.004,0.481-0.18,0.891-0.527,1.23
	c-0.339,0.348-0.749,0.523-1.23,0.528c-0.481-0.004-0.891-0.18-1.23-0.528c-0.348-0.339-0.523-0.749-0.528-1.23v-1.23
	c0-0.22,0-0.439,0-0.659c-0.559-3.763-3.62-7-9.184-9.711h-0.044C53.599,9.121,45.748,7.51,36.509,7.507z"/>
</svg>
