<?xml version="1.0" encoding="utf-8"?>
<!-- Generator: Adobe Illustrator 15.0.0, SVG Export Plug-In . SVG Version: 6.00 Build 0)  -->
<!DOCTYPE svg PUBLIC "-//W3C//DTD SVG 1.1//EN" "http://www.w3.org/Graphics/SVG/1.1/DTD/svg11.dtd">
<svg version="1.1" id="Layer_1" xmlns="http://www.w3.org/2000/svg" xmlns:xlink="http://www.w3.org/1999/xlink" x="0px" y="0px"
	 width="100px" height="100px" viewBox="0 0 100 100" enable-background="new 0 0 100 100" xml:space="preserve">
<path fill-rule="evenodd" clip-rule="evenodd" fill="#3567B1" d="M16.22,64.441l3.421,1.381c0.178,0.074,0.332,0.184,0.46,0.329
	c0.126,0.155,0.213,0.331,0.263,0.526c1.451,4.984,3.129,8.35,5.033,10.099v0.033c1.923,1.679,4.094,1.427,6.513-0.757
	c0.264-0.231,0.571-0.341,0.921-0.329c0.347,0.014,0.642,0.146,0.888,0.396l0.033,0.065c2.288,2.05,4.349,2.259,6.184,0.625
	c0.012-0.022,0.023-0.044,0.033-0.065c2.005-1.745,3.705-5.101,5.099-10.066c0.057-0.198,0.156-0.374,0.296-0.526
	c0.149-0.148,0.324-0.258,0.527-0.329l3.42-1.381c0.296-0.122,0.592-0.133,0.889-0.033c0.299,0.112,0.53,0.31,0.69,0.592
	c0.163,0.276,0.218,0.572,0.165,0.888c-0.679,4.07-1.863,7.589-3.553,10.559l-0.033,0.099c-0.025,0.08-0.059,0.157-0.098,0.23
	c-1.707,3.001-3.67,5.425-5.888,7.27h-0.033c-2.847,2.273-5.698,3.424-8.553,3.454h-0.099c-3.006,0.021-5.912-1.13-8.717-3.454
	c-2.279-1.853-4.231-4.287-5.855-7.302l-0.033-0.034c-0.088-0.078-0.166-0.166-0.23-0.263c-1.69-2.97-2.875-6.489-3.553-10.559
	c-0.057-0.328-0.002-0.635,0.165-0.921c0.171-0.276,0.413-0.462,0.724-0.559C15.611,64.305,15.918,64.315,16.22,64.441z
	 M32.733,50.592h0.065c5.578-0.004,10.347-0.706,14.31-2.105c1.842-0.609,3.278-1.256,4.309-1.941
	c0.249-0.179,0.523-0.255,0.822-0.23c0.317,0.026,0.592,0.146,0.822,0.362c0.226,0.216,0.356,0.48,0.395,0.79l0.526,4.407
	c0.027,0.214,0.005,0.423-0.066,0.625c-0.079,0.191-0.2,0.356-0.361,0.493c-1.127,1.075-3.068,2.116-5.822,3.125h-0.033
	c-4.155,1.404-9.122,2.107-14.902,2.105c-0.131,0-0.263,0-0.394,0c-5.958,0.001-11.013-0.701-15.165-2.105h0.033
	c-2.582-0.831-4.402-1.795-5.461-2.894c-0.144-0.131-0.254-0.285-0.329-0.461c-0.063-0.183-0.085-0.369-0.065-0.56l0.395-4.802
	c0.029-0.333,0.161-0.618,0.395-0.855c0.228-0.225,0.502-0.346,0.822-0.362c0.329-0.021,0.625,0.066,0.888,0.263
	c1.01,0.755,2.48,1.435,4.408,2.04h0.033C22.321,49.887,27.112,50.588,32.733,50.592z M54.51,59.408h-0.033
	c5.379-1.804,8.153-3.865,8.322-6.184c-0.154-2.38-3.06-4.946-8.717-7.698l0.034,0.033c-0.401-0.183-0.807-0.391-1.218-0.625
	c-0.61-0.176-1.246-0.417-1.907-0.724c-0.199-0.088-0.364-0.22-0.494-0.395c-0.141-0.189-0.229-0.397-0.263-0.625l-0.954-7.237
	l-0.329,0.165c-0.301,0.269-0.565,0.389-0.79,0.362c-0.362,0.145-0.757,0.277-1.184,0.395l0.066-0.033
	c-0.688,0.23-1.467,0.46-2.336,0.69c-0.043,0.001-0.087,0.001-0.131,0c-3.262,0.547-7.166,0.625-11.711,0.23h-0.131
	c-0.238,0-0.458,0-0.658,0c-0.055,0.004-0.109,0.004-0.165,0c-2.264-0.31-4.358-0.661-6.283-1.053
	c-0.043-0.013-0.087-0.024-0.131-0.033c-0.345-0.065-0.619-0.241-0.822-0.526c-0.205-0.291-0.281-0.608-0.23-0.954
	c0.063-0.35,0.238-0.635,0.526-0.855c0.273-0.215,0.58-0.302,0.921-0.264c1.979,0.217,4.216,0.327,6.71,0.329
	c0.087,0,0.154,0,0.197,0c4.54,0.002,8.443-0.502,11.71-1.513c2.066-0.627,3.394-1.296,3.98-2.006l0.033-0.033
	c0.059-0.08,0.104-0.157,0.131-0.23l-0.033-0.165v-0.065c-0.143-0.36-0.516-0.744-1.118-1.151l-1.513-0.691
	c-0.402-0.179-0.84-0.322-1.316-0.428c-0.033-0.01-0.065-0.021-0.098-0.033c-3.182-0.968-7.086-1.45-11.711-1.448
	c-0.044,0-0.087,0-0.131,0c-2.265,0.004-4.36,0.136-6.283,0.395c-0.055,0.004-0.11,0.004-0.165,0c-0.22,0-0.417,0-0.592,0
	c-1.894,0.297-3.638,0.638-5.23,1.021c-2.212,0.688-3.518,1.445-3.915,2.269c-0.031,0.103-0.074,0.202-0.132,0.296l-1.381,12.237
	c-0.029,0.23-0.117,0.438-0.263,0.624c-0.148,0.192-0.335,0.335-0.559,0.428c-0.491,0.208-0.94,0.417-1.349,0.625
	c-0.043,0.012-0.087,0.023-0.131,0.033c-0.632,0.246-1.224,0.531-1.776,0.855h-0.033c-5.348,2.794-8.1,5.393-8.256,7.797
	c0.167,2.32,2.919,4.381,8.256,6.184h-0.033c6.075,1.974,13.356,2.961,21.842,2.96c0.044,0,0.087,0,0.131,0
	C41.263,62.368,48.478,61.381,54.51,59.408z M25.299,24.441c0.066-0.017,0.132-0.027,0.198-0.033c0.179,0,0.388,0,0.625,0
	c2.024-0.267,4.228-0.398,6.612-0.395c0.044,0,0.087,0,0.131,0c4.888,0.002,9.022,0.518,12.401,1.546
	c0.665,0.157,1.279,0.365,1.842,0.625l1.71,0.79c0.069,0.029,0.134,0.062,0.198,0.099c1.329,0.909,2.052,1.84,2.171,2.796v-0.066
	l0.065,0.461c0.024,0.108,0.035,0.218,0.033,0.329c0.019,0.605-0.189,1.208-0.625,1.809c-0.041,0.062-0.084,0.128-0.132,0.197
	c0.022-0.004,0.044-0.004,0.065,0c0.284,0.042,0.524,0.162,0.724,0.362c0.201,0.213,0.322,0.466,0.362,0.757l1.085,8.421
	c0.361,0.141,0.711,0.262,1.053,0.361c0.089,0.022,0.177,0.056,0.263,0.099c0.362,0.195,0.724,0.371,1.086,0.526l0.033,0.033
	c6.98,3.391,10.39,6.746,10.23,10.066c0.177,3.468-3.189,6.362-10.098,8.684h-0.033C49.05,63.969,41.572,65,32.865,65
	c-0.044,0-0.087,0-0.131,0c-8.795,0-16.339-1.031-22.632-3.092h-0.033c-6.863-2.323-10.208-5.217-10.033-8.684
	c-0.161-3.297,3.052-6.664,9.638-10.099H9.641c0.676-0.377,1.399-0.706,2.171-0.987l-0.131,0.033
	c0.255-0.125,0.53-0.246,0.823-0.362l1.348-12.04c0.035-0.314,0.167-0.578,0.395-0.79c0.657-1.37,2.5-2.521,5.527-3.454
	c0.034-0.011,0.067-0.022,0.098-0.033C21.524,25.098,23.333,24.747,25.299,24.441z"/>
<path fill-rule="evenodd" clip-rule="evenodd" fill="#3567B1" d="M92.141,18.717c-3.661-2.395-8.069-3.59-13.224-3.586
	c-5.154-0.004-9.562,1.191-13.223,3.586c-3.422,2.299-5.155,5.051-5.198,8.256c0.045,3.202,1.778,5.932,5.198,8.191
	c2.945,1.938,6.366,3.111,10.263,3.52c0.326,0.041,0.6,0.184,0.822,0.428c0.227,0.231,0.347,0.505,0.362,0.822
	c0.01,0.33-0.089,0.625-0.296,0.888c-0.557,0.692-1.16,1.361-1.809,2.006c-0.989,0.995-2.042,1.85-3.158,2.566
	c0.153,0.001,0.307,0.001,0.46,0c3.267,0.001,6.041-1.162,8.322-3.486h0.033c0.872-0.884,1.584-1.827,2.138-2.829
	c0.1-0.172,0.231-0.315,0.396-0.428c0.159-0.107,0.334-0.172,0.526-0.197c3.146-0.541,5.942-1.637,8.388-3.29
	c3.42-2.259,5.153-4.989,5.197-8.191C97.296,23.769,95.563,21.016,92.141,18.717z M78.917,12.5
	c5.723,0.004,10.613,1.353,14.672,4.046c4.296,2.875,6.423,6.352,6.381,10.427c0.046,4.079-2.082,7.532-6.381,10.362
	c-2.57,1.747-5.487,2.942-8.75,3.586c-0.63,0.991-1.397,1.934-2.303,2.829h0.033c-2.807,2.85-6.216,4.275-10.23,4.276
	c-1.834-0.005-3.522-0.301-5.065-0.888c-0.26-0.098-0.468-0.263-0.625-0.493c-0.158-0.229-0.235-0.481-0.231-0.757
	c0.008-0.278,0.096-0.531,0.264-0.757c0.159-0.221,0.367-0.375,0.625-0.46c2.184-0.726,4.146-1.954,5.888-3.685l0.033-0.033
	c-3.338-0.65-6.332-1.856-8.98-3.619c-4.299-2.83-6.427-6.283-6.381-10.362c-0.042-4.075,2.084-7.552,6.381-10.427
	C68.304,13.853,73.195,12.504,78.917,12.5z"/>
</svg>
