<?xml version="1.0" encoding="utf-8"?>
<!-- Generator: Adobe Illustrator 15.0.0, SVG Export Plug-In . SVG Version: 6.00 Build 0)  -->
<!DOCTYPE svg PUBLIC "-//W3C//DTD SVG 1.1//EN" "http://www.w3.org/Graphics/SVG/1.1/DTD/svg11.dtd">
<svg version="1.1" id="Layer_1" xmlns="http://www.w3.org/2000/svg" xmlns:xlink="http://www.w3.org/1999/xlink" x="0px" y="0px"
	 width="100px" height="100px" viewBox="0 0 100 100" enable-background="new 0 0 100 100" xml:space="preserve">
<path fill-rule="evenodd" clip-rule="evenodd" fill="#3567B1" d="M74.043,49.932h-0.069l0.486,0.485
	c2.448,1.801,4.433,4.065,5.958,6.791c1.616,2.632,2.587,5.473,2.91,8.522v0.069c0.139,0.878,0.208,1.825,0.208,2.842v0.693
	l-0.693,0.416c-1.016,0.554-1.896,0.993-2.634,1.317c-2.817,1.154-5.75,1.732-8.799,1.732c-3.095,0-6.052-0.578-8.87-1.732
	l-0.624-0.277v0.553c-0.416,3.003-1.409,5.89-2.979,8.662c-1.478,2.633-3.464,4.873-5.959,6.721l-3.049,1.94l-2.91-1.94
	c-2.541-1.848-4.574-4.088-6.097-6.721c-1.479-2.586-2.449-5.473-2.91-8.662v-0.553l-0.693,0.277
	c-2.865,1.154-5.798,1.732-8.8,1.732c-1.664,0-3.28-0.163-4.85-0.485c-0.877-0.23-1.756-0.485-2.633-0.762
	c-0.462-0.138-0.9-0.3-1.316-0.484c-0.878-0.417-1.755-0.879-2.633-1.386l-0.555-0.346l0.139-3.604
	c0.231-2.216,0.832-4.364,1.801-6.443c0.278-0.693,0.625-1.385,1.04-2.079c0.045-0.093,0.116-0.186,0.208-0.277
	c1.431-2.495,3.373-4.667,5.82-6.514L26.026,50l0.069-0.069l-0.554-0.347c-2.495-1.802-4.504-4.065-6.028-6.791
	c-1.571-2.679-2.518-5.498-2.841-8.454l-0.139-3.672l0.623-0.415c0.878-0.509,1.756-0.901,2.634-1.179
	c2.633-1.201,5.543-1.801,8.73-1.801c0.739,0,1.478,0.047,2.218,0.139c2.263,0.185,4.48,0.739,6.651,1.663l0.625,0.277v-0.693
	c0.461-3.188,1.431-6.052,2.91-8.592c1.571-2.726,3.602-4.989,6.097-6.79c0.693-0.601,1.479-1.11,2.355-1.525l0.555-0.417
	l0.625,0.346c0.831,0.462,1.685,0.994,2.563,1.595c2.495,1.893,4.436,4.157,5.821,6.79c1.569,2.68,2.563,5.543,2.979,8.592v0.693
	l0.624-0.277c2.726-1.201,5.683-1.801,8.87-1.801c0.784,0,1.569,0.047,2.356,0.139c2.263,0.231,4.457,0.786,6.583,1.663l3.188,1.525
	v0.762c0,0.97-0.069,1.917-0.208,2.84c-0.323,3.003-1.294,5.867-2.91,8.593c-0.508,0.877-1.039,1.708-1.594,2.494
	c-0.045,0.047-0.092,0.093-0.138,0.139c-1.248,1.525-2.657,2.911-4.226,4.158L74.043,49.932z M19.305,33.994
	c0.416,2.633,1.247,5.128,2.494,7.484c1.432,2.402,3.234,4.411,5.405,6.027l1.316,0.971c1.478-0.786,3.095-1.386,4.85-1.802
	c2.911-0.831,5.844-1.062,8.8-0.692c2.171,0.277,4.296,0.877,6.375,1.802c-0.277-1.94-0.786-3.833-1.524-5.682
	c-0.924-2.356-2.333-4.435-4.227-6.236c-1.293-1.293-2.679-2.379-4.157-3.257c-0.6-0.324-1.339-0.693-2.216-1.108
	c-0.786-0.323-1.571-0.578-2.357-0.762c-1.848-0.509-3.695-0.762-5.543-0.762c-2.771,0-5.336,0.508-7.691,1.524l-1.524,0.693V33.994
	z M56.651,21.383c-1.339-2.355-3.095-4.319-5.266-5.889c-0.461-0.461-0.901-0.809-1.316-1.04c-0.416,0.231-0.901,0.578-1.455,1.04
	c-2.217,1.57-3.996,3.534-5.335,5.889c-1.34,2.402-2.194,4.921-2.564,7.553l-0.138,1.732c1.478,0.878,2.818,1.963,4.019,3.257
	c2.171,2.033,3.833,4.434,4.989,7.206c0.785,2.079,1.27,4.227,1.455,6.445c1.663-1.063,3.095-2.402,4.295-4.02
	c1.525-2.032,2.633-4.295,3.326-6.79c0.462-1.71,0.694-3.511,0.694-5.405c0-0.786-0.023-1.594-0.069-2.425
	C58.87,26.257,57.991,23.74,56.651,21.383z M63.649,31.5l-1.662,0.693c-0.047,1.756-0.277,3.511-0.693,5.266
	c-0.832,2.817-2.078,5.382-3.741,7.692c-1.571,1.894-3.188,3.488-4.851,4.781c1.801,0.739,3.648,1.247,5.543,1.524
	c2.448,0.231,5.012,0.045,7.691-0.555c1.618-0.507,3.209-1.177,4.781-2.009c1.017-0.6,1.732-1.062,2.148-1.386
	c2.125-1.617,3.88-3.625,5.266-6.027c1.34-2.356,2.171-4.875,2.495-7.553l0.208-1.732L79.24,31.5
	c-2.495-1.016-5.08-1.524-7.76-1.524h-0.069C68.731,29.976,66.145,30.484,63.649,31.5z M71.411,51.524
	c-1.432,0.739-3.026,1.386-4.781,1.941c-2.957,0.738-5.89,0.947-8.8,0.623c-2.218-0.277-4.366-0.901-6.444-1.872
	c0.277,1.986,0.785,3.88,1.524,5.683c1.017,2.309,2.425,4.411,4.228,6.305c0.739,0.739,1.478,1.409,2.217,2.01l2.009,1.177
	c0.693,0.416,1.409,0.808,2.148,1.177c2.586,1.063,5.219,1.595,7.899,1.595c2.771,0,5.38-0.532,7.829-1.595
	c0.74-0.276,1.271-0.531,1.594-0.762l-0.208-1.732c-0.323-2.679-1.154-5.197-2.495-7.554c-1.386-2.354-3.141-4.34-5.266-5.958
	C72.496,52.333,72.012,51.987,71.411,51.524z M73.144,49.861l0.831,0.07L73.144,49.861z M48.753,52.356
	c-1.57,1.155-2.956,2.541-4.157,4.158c-1.479,1.985-2.564,4.295-3.256,6.929c-0.509,1.709-0.763,3.442-0.763,5.197
	c0,0.785,0.046,1.616,0.138,2.494c0.37,2.632,1.224,5.104,2.564,7.414c1.432,2.448,3.211,4.481,5.335,6.098l1.455,0.971l1.386-0.971
	c2.171-1.709,3.903-3.742,5.196-6.098c1.34-2.309,2.219-4.804,2.634-7.482l0.069-1.732c-1.524-0.924-2.91-2.01-4.158-3.257
	c-1.987-2.079-3.603-4.458-4.851-7.136C49.468,56.768,48.938,54.573,48.753,52.356z M34.063,49.169
	c-1.57,0.369-3.049,0.946-4.435,1.731l-0.554,0.347c-0.461,0.186-1.085,0.624-1.87,1.317c-2.171,1.618-3.974,3.604-5.405,5.958
	c-1.247,2.311-2.078,4.828-2.494,7.554v1.872l1.386,0.622c0.092,0.048,0.208,0.094,0.346,0.14c2.355,0.97,4.851,1.455,7.483,1.455
	c2.679,0,5.312-0.532,7.9-1.595c0.6-0.276,1.131-0.531,1.593-0.762c0-1.893,0.23-3.579,0.693-5.057
	c0.832-3.003,2.125-5.637,3.879-7.9c1.34-1.801,2.888-3.372,4.643-4.712c-1.616-0.693-3.441-1.201-5.474-1.523
	C39.122,48.338,36.557,48.522,34.063,49.169z M26.649,50h-0.623H26.649z"/>
<g>
	<path fill="#3567B1" d="M99.975,56.831c0.01,0.098,0,0.196-0.01,0.295c-0.039,0.285-0.157,0.55-0.343,0.766l-7.008,7.008
		c-0.275,0.285-0.648,0.432-1.042,0.432c-0.393,0-0.766-0.147-1.041-0.432c-0.275-0.275-0.433-0.649-0.433-1.042
		s0.158-0.767,0.433-1.042l4.413-4.413h-10.3c-0.393,0-0.767-0.147-1.042-0.433l-6.506-6.506l-3.253-0.069l-0.825-0.069
		c-0.806-0.069-1.416-0.776-1.347-1.592c0.069-0.757,0.708-1.347,1.464-1.347h0.138l0.786,0.069l3.686,0.069
		c0.383,0.01,0.747,0.157,1.012,0.432l6.497,6.496h9.69l-4.413-4.412c-0.275-0.275-0.433-0.649-0.433-1.042s0.158-0.767,0.433-1.042
		c0.56-0.56,1.533-0.56,2.083,0l7.125,7.077l-0.02,0.068C99.867,56.319,99.956,56.565,99.975,56.831z"/>
	<path fill="#3567B1" d="M28.123,50c0,0.816-0.659,1.474-1.474,1.474h-4.364c-0.393,0-0.767-0.157-1.042-0.432l-6.497-6.496h-9.69
		l4.413,4.412C9.745,49.233,9.902,49.607,9.902,50s-0.158,0.767-0.433,1.042c-0.56,0.56-1.533,0.56-2.083,0L0.31,43.936
		c-0.167-0.226-0.266-0.491-0.285-0.767c-0.01-0.098,0-0.187,0.01-0.275c0.029-0.295,0.157-0.56,0.343-0.786l7.008-7.008
		c0.55-0.56,1.523-0.56,2.083,0c0.275,0.275,0.433,0.649,0.433,1.042s-0.158,0.767-0.433,1.042l-4.413,4.413h10.3
		c0.393,0,0.767,0.157,1.042,0.433l6.496,6.496h3.754C27.464,48.526,28.123,49.184,28.123,50z"/>
</g>
</svg>
