<?xml version="1.0" encoding="utf-8"?>
<!-- Generator: Adobe Illustrator 15.0.0, SVG Export Plug-In . SVG Version: 6.00 Build 0)  -->
<!DOCTYPE svg PUBLIC "-//W3C//DTD SVG 1.1//EN" "http://www.w3.org/Graphics/SVG/1.1/DTD/svg11.dtd">
<svg version="1.1" id="Layer_1" xmlns="http://www.w3.org/2000/svg" xmlns:xlink="http://www.w3.org/1999/xlink" x="0px" y="0px"
	 width="269.15px" height="204.45px" viewBox="0 0 269.15 204.45" enable-background="new 0 0 269.15 204.45" xml:space="preserve">
<path fill-rule="evenodd" clip-rule="evenodd" fill="#FFFFFF" d="M135.15,27.6h0.1c5.233,0.467,9.717,0.383,13.45-0.25
	c0.967-0.233,1.833-0.467,2.6-0.7c0.567-0.167,1.084-0.367,1.551-0.6H153c0.066,0,0.134-0.05,0.2-0.15l2.5-1.3l1.35,10.7
	c0.767,0.333,1.517,0.617,2.25,0.85c0.467,0.233,0.934,0.467,1.4,0.7c7.366,3.567,11.05,7.017,11.05,10.35c0,3.4-3.6,6.3-10.8,8.7
	c-7.134,2.367-15.7,3.55-25.7,3.55c-0.066,0-0.133,0-0.2,0c-10.066,0-18.716-1.184-25.949-3.55c-7.134-2.4-10.7-5.3-10.7-8.7
	c0-3.333,3.5-6.817,10.5-10.45c0.7-0.4,1.45-0.767,2.25-1.1c0.533-0.233,1.116-0.466,1.75-0.7l1.7-14.95h0.1
	c0.467-1.433,2.366-2.667,5.7-3.7c1.899-0.467,3.967-0.867,6.2-1.2c0.3,0,0.616,0,0.949,0c2.301-0.3,4.801-0.45,7.5-0.45
	c0.067,0,0.134,0,0.2,0c5.566,0,10.283,0.583,14.15,1.75c0.633,0.167,1.233,0.367,1.8,0.6l2,0.95c1.134,0.733,1.767,1.483,1.9,2.25
	l0.149,0.6c0,0.4-0.166,0.8-0.5,1.2c-0.767,1.1-2.583,2.083-5.45,2.95c-3.966,1.2-8.683,1.8-14.149,1.8c-0.066,0-0.15,0-0.25,0
	c-2.934,0-5.584-0.117-7.95-0.35c2.233,0.467,4.684,0.867,7.35,1.2C134.566,27.6,134.851,27.6,135.15,27.6z M135.25,85.7h-0.1
	c-3.167,0-6.25-1.217-9.25-3.65c-2.467-2.067-4.617-4.767-6.45-8.1l-0.25-0.35c-1.9-3.333-3.233-7.3-4-11.9l4,1.65
	c1.767,6.2,3.866,10.367,6.3,12.5c2.867,2.7,6.084,2.417,9.65-0.85l0.1,0.15c3.434,3.1,6.533,3.333,9.3,0.7
	c2.534-2.133,4.667-6.3,6.4-12.5L155,61.7c-0.8,4.6-2.149,8.566-4.05,11.9l-0.1,0.35c-1.9,3.333-4.084,6.033-6.551,8.1
	C141.3,84.417,138.283,85.633,135.25,85.7z M157.75,40.65c-1.267,0.867-3.05,1.7-5.35,2.5c-4.767,1.667-10.517,2.5-17.25,2.5h-0.101
	c-6.733,0-12.483-0.833-17.25-2.5c-2.466-0.8-4.333-1.667-5.6-2.6l-0.45,5.6c1.101,1.1,3,2.083,5.7,2.95
	c4.733,1.6,10.483,2.4,17.25,2.4c0.134,0,0.283,0,0.45,0c6.566,0,12.2-0.8,16.899-2.4c3-1.033,5.101-2.133,6.301-3.3L157.75,40.65
	l0.101-0.1c-0.067-0.067-0.15-0.1-0.25-0.1L157.75,40.65z"/>
<path fill-rule="evenodd" clip-rule="evenodd" fill="#9A0002" d="M157.75,40.65l-0.149-0.2c0.1,0,0.183,0.033,0.25,0.1L157.75,40.65
	z"/>
<path fill-rule="evenodd" clip-rule="evenodd" d="M145.4,144.05L141.8,163.6h7.25L145.4,144.05z M148.3,135.45l9.301,43.45h-5.75
	l-2-10.95H141l-2.1,10.95h-5.7l9.25-43.45H148.3z M168.05,135.45v18.8h11.15v-18.8h6.05v43.45h-6.05v-20.3h-11.15v20.3H162v-43.45
	H168.05z M201.9,144.05L198.3,163.6h7.25L201.9,144.05z M204.8,135.45l9.301,43.45h-5.75l-2-10.95H197.5l-2.1,10.95h-5.7l9.25-43.45
	H204.8z M252.15,135.45v20.5l9.95-20.5h5.649l-8.6,19.15l10,24.3h-5.9l-8.3-20.35l-2.8,5v15.35h-6.05v-43.45H252.15z M225.75,140.85
	c-0.8,0.7-1.333,1.667-1.6,2.9c-0.233,1.233-0.351,2.883-0.351,4.95v17.2c0,2.233,0.167,3.967,0.5,5.2
	c0.367,1.267,0.95,2.167,1.75,2.7c0.834,0.533,1.95,0.8,3.351,0.8c1.566,0,2.717-0.333,3.45-1c0.767-0.7,1.233-1.634,1.399-2.8
	c0.2-1.167,0.3-2.784,0.3-4.85v-3.2h5.75v3.2c0,4.333-0.816,7.65-2.449,9.95c-0.823,1.158-1.948,2.025-3.375,2.601
	c-1.415,0.566-3.124,0.85-5.125,0.85c-2.019,0-3.76-0.283-5.226-0.85c-1.618-0.632-2.894-1.615-3.825-2.95
	c-1.767-2.566-2.649-6.101-2.649-10.6V149.6c0-4.767,0.866-8.367,2.6-10.8c1.733-2.467,4.767-3.7,9.101-3.7
	c3.899,0,6.699,1.05,8.399,3.15s2.55,5.217,2.55,9.35v3.4h-5.75v-3.05c0-2-0.083-3.533-0.25-4.6c-0.166-1.067-0.616-1.933-1.35-2.6
	c-0.733-0.633-1.917-0.95-3.55-0.95C227.767,139.8,226.55,140.15,225.75,140.85z M6.15,165.9c0,2.233,0.167,3.967,0.5,5.2
	c0.367,1.267,0.95,2.167,1.75,2.7c0.833,0.533,1.95,0.8,3.35,0.8c1.567,0,2.717-0.333,3.45-1c0.767-0.7,1.233-1.634,1.4-2.8
	c0.2-1.167,0.3-2.784,0.3-4.85v-3.2h5.75v3.2c0,4.333-0.817,7.65-2.45,9.95s-4.467,3.45-8.5,3.45c-4.267,0-7.283-1.267-9.05-3.8
	C0.883,172.984,0,169.45,0,164.95V149.6c0-4.767,0.867-8.367,2.6-10.8c1.733-2.467,4.767-3.7,9.1-3.7c3.9,0,6.7,1.05,8.4,3.15
	c1.7,2.1,2.55,5.217,2.55,9.35v3.4H16.9v-3.05c0-2-0.083-3.533-0.25-4.6c-0.167-1.067-0.617-1.933-1.35-2.6
	c-0.733-0.633-1.917-0.95-3.55-0.95s-2.85,0.35-3.65,1.05c-0.8,0.7-1.333,1.667-1.6,2.9c-0.233,1.233-0.35,2.883-0.35,4.95V165.9z
	 M48.6,138.6c1.867,2.333,2.8,5.733,2.8,10.2v16.55c0,4.5-0.934,7.967-2.8,10.4c-0.959,1.233-2.227,2.15-3.8,2.75
	c-1.476,0.566-3.226,0.85-5.25,0.85c-2.073,0-3.856-0.283-5.35-0.85c-1.591-0.6-2.857-1.517-3.8-2.75
	c-1.867-2.4-2.8-5.884-2.8-10.45v-16.5c0-4.5,0.934-7.917,2.8-10.25c1.867-2.3,4.917-3.45,9.15-3.45
	C43.75,135.1,46.767,136.267,48.6,138.6z M39.55,139.8c-2.3,0-3.85,0.633-4.65,1.9c-0.767,1.267-1.15,3.233-1.15,5.9v19
	c0,2.7,0.383,4.7,1.15,6c0.8,1.333,2.35,2,4.65,2c2.233,0,3.75-0.667,4.55-2c0.767-1.3,1.15-3.3,1.15-6v-19
	c0-2.667-0.383-4.633-1.15-5.9C43.3,140.434,41.784,139.8,39.55,139.8z M73.8,135.45h5.05v43.45H75l-12.5-29.65v29.65h-5.15v-43.45
	h4.1L73.8,164.3V135.45z M83,139.95v-4.5h20.55v4.5H96.4v38.95h-6.05v-38.95H83z M113.8,139.8v14.4h2.301c2.6,0,4.466-0.533,5.6-1.6
	c1.134-1.033,1.7-2.9,1.7-5.6c0-1.8-0.2-3.2-0.601-4.2c-0.399-1.034-1.1-1.784-2.1-2.25c-1-0.5-2.417-0.75-4.25-0.75H113.8z
	 M126.15,138.2c2.066,1.8,3.1,4.733,3.1,8.8c0,5.567-1.8,8.95-5.399,10.15l6.199,21.75h-5.85l-5.7-20.35h-4.7v20.35h-6.05v-43.45
	h8.7C120.851,135.45,124.084,136.367,126.15,138.2z"/>
<linearGradient id="SVGID_1_" gradientUnits="userSpaceOnUse" x1="92.4248" y1="27.3003" x2="178.3748" y2="27.3003">
	<stop  offset="0" style="stop-color:#A30001"/>
	<stop  offset="1" style="stop-color:#BF0708"/>
</linearGradient>
<rect x="135.15" y="27" fill-rule="evenodd" clip-rule="evenodd" fill="url(#SVGID_1_)" width="0.1" height="0.6"/>
<path fill-rule="evenodd" clip-rule="evenodd" fill="#387CDF" d="M135.25,75.15l-0.1-0.15c-3.566,3.267-6.783,3.55-9.65,0.85
	c-2.434-2.133-4.533-6.3-6.3-12.5l-4-1.65c0.767,4.6,2.1,8.566,4,11.9l0.25,0.35c1.833,3.333,3.983,6.033,6.45,8.1
	c3,2.433,6.083,3.65,9.25,3.65h0.1v24.5c-26.934-10.533-41.2-30.583-42.8-60.15v-28.9c0-0.4,0.05-0.75,0.15-1.05
	c0.566-5.4,4.733-10,12.5-13.8C113.4,2.1,123.45,0,135.25,0v14.65c-0.066,0-0.133,0-0.2,0c-2.699,0-5.199,0.15-7.5,0.45
	c-0.333,0-0.649,0-0.949,0c-2.233,0.333-4.301,0.733-6.2,1.2c-3.334,1.033-5.233,2.267-5.7,3.7h-0.1l-1.7,14.95
	c-0.634,0.233-1.217,0.467-1.75,0.7c-0.8,0.333-1.55,0.7-2.25,1.1c-7,3.633-10.5,7.117-10.5,10.45c0,3.4,3.566,6.3,10.7,8.7
	c7.233,2.367,15.883,3.55,25.949,3.55c0.067,0,0.134,0,0.2,0V75.15z"/>
<path fill-rule="evenodd" clip-rule="evenodd" fill="#2F67B8" d="M135.25,110.2V85.7c3.033-0.067,6.05-1.283,9.05-3.65
	c2.467-2.067,4.65-4.767,6.551-8.1l0.1-0.35c1.9-3.333,3.25-7.3,4.05-11.9l-4.05,1.65c-1.733,6.2-3.866,10.367-6.4,12.5
	c-2.767,2.633-5.866,2.4-9.3-0.7v-15.7c10,0,18.566-1.184,25.7-3.55c7.2-2.4,10.8-5.3,10.8-8.7c0-3.333-3.684-6.783-11.05-10.35
	c-0.467-0.233-0.934-0.467-1.4-0.7c-0.733-0.233-1.483-0.517-2.25-0.85l-1.35-10.7l-2.5,1.3c-0.066,0.1-0.134,0.15-0.2,0.15h-0.149
	c-0.467,0.233-0.983,0.433-1.551,0.6c-0.767,0.233-1.633,0.467-2.6,0.7c-3.733,0.633-8.217,0.717-13.45,0.25V27h-0.1v0.6
	c-0.3,0-0.584,0-0.851,0c-2.666-0.333-5.116-0.733-7.35-1.2c2.366,0.233,5.017,0.35,7.95,0.35c0.1,0,0.184,0,0.25,0
	c5.467,0,10.184-0.6,14.149-1.8c2.867-0.867,4.684-1.85,5.45-2.95c0.334-0.4,0.5-0.8,0.5-1.2l-0.149-0.6
	c-0.134-0.767-0.767-1.517-1.9-2.25l-2-0.95c-0.566-0.233-1.167-0.433-1.8-0.6c-3.867-1.167-8.584-1.75-14.15-1.75V0
	c0.101,0,0.184,0,0.25,0c11.9,0,22,2.1,30.3,6.3c7.767,3.8,11.983,8.4,12.65,13.8c0,0.3,0,0.65,0,1.05v28.9
	c-1.533,29.633-15.85,49.683-42.95,60.15C135.434,110.2,135.351,110.2,135.25,110.2z M157.75,40.65l0.601,5.15
	c-1.2,1.167-3.301,2.267-6.301,3.3c-4.699,1.6-10.333,2.4-16.899,2.4c-0.167,0-0.316,0-0.45,0c-6.767,0-12.517-0.8-17.25-2.4
	c-2.7-0.867-4.6-1.85-5.7-2.95l0.45-5.6c1.267,0.933,3.134,1.8,5.6,2.6c4.767,1.667,10.517,2.5,17.25,2.5h0.101
	c6.733,0,12.483-0.833,17.25-2.5C154.7,42.35,156.483,41.517,157.75,40.65z M227.45,187.45L223.8,198.3v5.95h-2.199v-5.95
	l-3.65-10.851h2.2l2.55,8.101l2.55-8.101H227.45z M200.8,187.45v16.801h-2.3V187.45H200.8z M206,189.2v-1.75h7.95v1.75h-2.75v15.051
	h-2.35V189.2H206z M178.15,187.45v11.15c0,1.267-0.117,2.316-0.351,3.15c-0.267,0.833-0.716,1.5-1.35,2
	c-0.667,0.466-1.583,0.699-2.75,0.699s-2.083-0.233-2.75-0.699c-0.667-0.5-1.116-1.167-1.35-2c-0.267-0.834-0.4-1.884-0.4-3.15
	v-11.15h2.25v11.25c0,1.267,0.15,2.233,0.45,2.9s0.899,1,1.8,1s1.5-0.333,1.8-1s0.45-1.634,0.45-2.9v-11.25H178.15z M187.5,189.1
	h-1.05v5.6h0.9c1,0,1.716-0.216,2.149-0.649c0.434-0.4,0.65-1.117,0.65-2.15c0-0.7-0.066-1.25-0.2-1.649
	c-0.167-0.4-0.434-0.684-0.8-0.851C188.75,189.2,188.2,189.1,187.5,189.1z M191.25,188.5c0.8,0.699,1.2,1.833,1.2,3.399
	c0,2.167-0.7,3.483-2.1,3.95l2.399,8.4h-2.25l-2.2-7.9h-1.85v7.9h-2.35V187.45h3.399C189.2,187.45,190.45,187.8,191.25,188.5z
	 M158.05,189.5c-0.333,0.3-0.55,0.683-0.649,1.149c-0.101,0.467-0.15,1.101-0.15,1.9v6.649c0,0.867,0.066,1.551,0.2,2.051
	c0.167,0.466,0.4,0.8,0.7,1c0.3,0.233,0.733,0.35,1.3,0.35c0.6,0,1.033-0.134,1.3-0.4c0.3-0.267,0.483-0.633,0.55-1.1
	c0.101-0.434,0.15-1.05,0.15-1.85V198h2.2v1.25c0,1.666-0.316,2.949-0.95,3.85s-1.733,1.35-3.3,1.35c-1.634,0-2.8-0.5-3.5-1.5
	c-0.667-1-1-2.366-1-4.1v-5.95c0-1.833,0.333-3.233,1-4.2c0.666-0.933,1.833-1.399,3.5-1.399c1.533,0,2.616,0.399,3.25,1.2
	c0.666,0.833,1,2.05,1,3.649v1.3h-2.2v-1.199c0-0.767-0.033-1.351-0.1-1.75c-0.067-0.434-0.25-0.767-0.551-1
	c-0.267-0.267-0.716-0.4-1.35-0.4S158.351,189.234,158.05,189.5z M133.45,189.1c-0.6,0-1.05,0.15-1.35,0.45
	c-0.334,0.333-0.5,0.8-0.5,1.399c0,0.5,0.083,0.917,0.25,1.25c0.166,0.334,0.449,0.684,0.85,1.051l2.85,2.449
	c0.733,0.667,1.317,1.384,1.75,2.15c0.434,0.767,0.65,1.634,0.65,2.6c0,1.2-0.366,2.167-1.1,2.9c-0.767,0.733-1.75,1.1-2.95,1.1
	c-1.4,0-2.467-0.449-3.2-1.35c-0.733-0.866-1.15-2.05-1.25-3.55l2.1-0.55c0.067,1.066,0.267,1.933,0.601,2.6
	c0.366,0.667,0.95,1,1.75,1c0.633,0,1.1-0.167,1.399-0.5c0.301-0.366,0.45-0.866,0.45-1.5c0-0.667-0.133-1.233-0.399-1.7
	c-0.301-0.467-0.767-0.967-1.4-1.5l-2.85-2.5c-0.567-0.5-0.967-1.033-1.2-1.6c-0.267-0.601-0.4-1.316-0.4-2.15
	c0-1.233,0.351-2.184,1.05-2.85c0.7-0.667,1.667-1,2.9-1c1.333,0,2.333,0.35,3,1.05s1.083,1.8,1.25,3.3l-2,0.5
	c-0.066-0.967-0.267-1.717-0.6-2.25C134.8,189.367,134.25,189.1,133.45,189.1z M149.8,189.2h-4.199v5.551H149v1.649h-3.399v6.15
	h4.199v1.7h-6.55V187.45h6.55V189.2z M112.4,187.45v15.101h4.3v1.7h-6.65V187.45H112.4z M101.25,187.45l3.601,16.801h-2.2L101.9,200
	h-3.45l-0.8,4.25h-2.2L99,187.45H101.25z M101.55,198.35l-1.399-7.6l-1.4,7.6H101.55z M78.15,187.45v16.801h-2.3V187.45H78.15z
	 M88.55,189.2v15.051H86.2V189.2h-2.85v-1.75h7.95v1.75H88.55z M54.95,187.45v16.801h-2.3V187.45H54.95z M65.35,187.3
	c1.567,0,2.684,0.399,3.35,1.2c0.7,0.767,1.05,2,1.05,3.699v0.601h-2.2v-0.5c0-0.8-0.05-1.417-0.15-1.851
	c-0.1-0.433-0.317-0.767-0.65-1c-0.3-0.233-0.75-0.35-1.35-0.35c-0.667,0-1.15,0.15-1.45,0.45c-0.333,0.3-0.533,0.7-0.6,1.2
	c-0.1,0.5-0.15,1.166-0.15,2V199c0,1.267,0.15,2.183,0.45,2.75c0.333,0.566,0.933,0.85,1.8,0.85s1.467-0.3,1.8-0.9
	c0.333-0.633,0.5-1.616,0.5-2.949v-1.15H65.6v-1.65h4.25v8.301H68.4l-0.25-1.95c-0.534,1.434-1.534,2.149-3,2.149
	c-1.5,0-2.6-0.483-3.3-1.449c-0.667-0.967-1-2.384-1-4.25v-5.65c0-1.3,0.133-2.366,0.4-3.2c0.267-0.833,0.733-1.483,1.4-1.95
	C63.317,187.517,64.217,187.3,65.35,187.3z M41.8,187.45c1.833,0,3.117,0.417,3.85,1.25c0.767,0.834,1.15,2.117,1.15,3.851v6.2
	c0,1.866-0.367,3.25-1.1,4.149c-0.767,0.9-2,1.351-3.7,1.351h-3.85V187.45H41.8z M40.5,189.2v13.351h1.35
	c0.8,0,1.383-0.15,1.75-0.45c0.367-0.333,0.6-0.767,0.7-1.3c0.1-0.566,0.15-1.4,0.15-2.5v-5.45c0-0.967-0.067-1.7-0.2-2.2
	c-0.1-0.5-0.35-0.866-0.75-1.1c-0.367-0.233-0.95-0.351-1.75-0.351H40.5z"/>
</svg>
