<?xml version="1.0" encoding="utf-8"?>
<!-- Generator: Adobe Illustrator 15.0.0, SVG Export Plug-In . SVG Version: 6.00 Build 0)  -->
<!DOCTYPE svg PUBLIC "-//W3C//DTD SVG 1.1//EN" "http://www.w3.org/Graphics/SVG/1.1/DTD/svg11.dtd">
<svg version="1.1" id="Layer_1" xmlns="http://www.w3.org/2000/svg" xmlns:xlink="http://www.w3.org/1999/xlink" x="0px" y="0px"
	 width="2200px" height="400px" viewBox="0 0 2200 400" enable-background="new 0 0 2200 400" xml:space="preserve">
<path fill-rule="evenodd" clip-rule="evenodd" fill="#FFFFFF" d="M1100,210l-938.6-0.05c-22.8-0.334-43.767,3.434-62.9,11.3
	c-19.3,7.8-36.917,19.667-52.85,35.6C29.817,272.116,17.933,289.05,10,307.65c-0.2,0.466-0.4,0.933-0.6,1.399
	c-4.333,10.3-7.467,21.134-9.4,32.5V0l1099.6,59.95l0.4-0.025l0.1,138.825L1100.2,210l-0.101-11.25L1100,59.925L2199.6-0.05H0v-0.1
	h2200V348.9c-0.133-1.067-0.267-2.117-0.4-3.15c-1.767-12.733-4.967-24.816-9.6-36.25c-0.2-0.5-0.4-0.983-0.6-1.45
	c-7.934-19.133-20.018-36.533-36.25-52.2c-15.934-15.933-33.551-27.8-52.851-35.6c-9.267-3.8-19.25-6.55-29.95-8.25
	c-9.967-1.6-20.866-2.316-32.699-2.15L1139.7,209.9l-39.5,0.1H1100l0.1-11.25L1100,210z M1180,130v0.25
	c-0.061,5.428-2.011,10.061-5.85,13.9c-3.9,3.9-8.617,5.85-14.15,5.85s-10.25-1.95-14.15-5.85c-3.899-3.9-5.85-8.617-5.85-14.15
	s1.95-10.25,5.85-14.15c3.9-3.9,8.617-5.85,14.15-5.85s10.25,1.95,14.15,5.85c3.839,3.839,5.789,8.472,5.85,13.9V130h310l50-50h180
	h190c0-5.533,1.95-10.25,5.85-14.15c3.9-3.9,8.617-5.85,14.15-5.85s10.25,1.95,14.15,5.85c3.899,3.9,5.85,8.617,5.85,14.15
	s-1.95,10.25-5.85,14.15c-3.9,3.9-8.617,5.85-14.15,5.85s-10.25-1.95-14.15-5.85c-3.899-3.9-5.85-8.617-5.85-14.15
	c0,5.533,1.95,10.25,5.85,14.15c3.9,3.9,8.617,5.85,14.15,5.85s10.25-1.95,14.15-5.85c3.899-3.9,5.85-8.617,5.85-14.15
	s-1.95-10.25-5.85-14.15c-3.9-3.9-8.617-5.85-14.15-5.85s-10.25,1.95-14.15,5.85c-3.899,3.9-5.85,8.617-5.85,14.15h-190h-180l-50,50
	H1180v-0.25c-0.061-5.428-2.011-10.061-5.85-13.9c-3.9-3.9-8.617-5.85-14.15-5.85s-10.25,1.95-14.15,5.85
	c-3.899,3.9-5.85,8.617-5.85,14.15s1.95,10.25,5.85,14.15c3.9,3.9,8.617,5.85,14.15,5.85s10.25-1.95,14.15-5.85
	c3.839-3.839,5.789-8.472,5.85-13.9V130z M1720,80l40,40h60l11.725,11.725c2.517-1.15,5.275-1.725,8.275-1.725
	c5.533,0,10.25,1.95,14.15,5.85c3.899,3.9,5.85,8.617,5.85,14.15c0,3-0.575,5.758-1.725,8.275c-0.965,2.131-2.34,4.09-4.125,5.875
	c-3.9,3.9-8.617,5.85-14.15,5.85s-10.25-1.95-14.15-5.85c-3.899-3.9-5.85-8.617-5.85-14.15s1.95-10.25,5.85-14.15
	c1.786-1.786,3.744-3.161,5.875-4.125c-2.131,0.964-4.089,2.339-5.875,4.125c-3.899,3.9-5.85,8.617-5.85,14.15
	s1.95,10.25,5.85,14.15c3.9,3.9,8.617,5.85,14.15,5.85s10.25-1.95,14.15-5.85c1.785-1.785,3.16-3.744,4.125-5.875
	C1859.425,155.758,1860,153,1860,150c0-5.533-1.95-10.25-5.85-14.15c-3.9-3.9-8.617-5.85-14.15-5.85c-3,0-5.759,0.575-8.275,1.725
	L1820,120h-60L1720,80z M710,90c0,5.533-1.95,10.25-5.85,14.15S695.533,110,690,110s-10.25-1.95-14.15-5.85S670,95.533,670,90
	s1.95-10.25,5.85-14.15S684.467,70,690,70s10.25,1.95,14.15,5.85S710,84.467,710,90h100l40,40h170c0-5.533,1.95-10.25,5.85-14.15
	s8.617-5.85,14.15-5.85s10.25,1.95,14.15,5.85c1.781,1.78,3.156,3.73,4.125,5.85c1.15,2.526,1.725,5.292,1.725,8.3
	c0,5.533-1.95,10.25-5.85,14.15S1045.533,150,1040,150c-2.756,0-5.306-0.483-7.65-1.45c-2.376-0.976-4.543-2.442-6.5-4.4
	c-3.9-3.9-5.85-8.617-5.85-14.15c0,5.533,1.95,10.25,5.85,14.15c1.957,1.958,4.124,3.424,6.5,4.4c2.344,0.967,4.894,1.45,7.65,1.45
	c5.533,0,10.25-1.95,14.15-5.85s5.85-8.617,5.85-14.15c0-3.007-0.575-5.774-1.725-8.3c-0.969-2.12-2.344-4.07-4.125-5.85
	c-3.9-3.9-8.617-5.85-14.15-5.85s-10.25,1.95-14.15,5.85S1020,124.467,1020,130H850l-40-40H710c0-5.533-1.95-10.25-5.85-14.15
	S695.533,70,690,70s-10.25,1.95-14.15,5.85S670,84.467,670,90s1.95,10.25,5.85,14.15S684.467,110,690,110s10.25-1.95,14.15-5.85
	S710,95.533,710,90z M850,130H740l-50,50H490l-53.7-38.35c-0.633,0.867-1.35,1.7-2.15,2.5c-3.9,3.9-8.617,5.85-14.15,5.85
	s-10.25-1.95-14.15-5.85S400,135.533,400,130s1.95-10.25,5.85-14.15S414.467,110,420,110s10.25,1.95,14.15,5.85S440,124.467,440,130
	c0,4.398-1.233,8.281-3.7,11.65c2.467-3.369,3.7-7.252,3.7-11.65c0-5.533-1.95-10.25-5.85-14.15S425.533,110,420,110
	s-10.25,1.95-14.15,5.85S400,124.467,400,130s1.95,10.25,5.85,14.15S414.467,150,420,150s10.25-1.95,14.15-5.85
	c0.8-0.8,1.517-1.633,2.15-2.5L490,180h200l50-50H850z M740,130H590c0,5.533-1.95,10.25-5.85,14.15S575.533,150,570,150
	s-10.25-1.95-14.15-5.85S550,135.533,550,130s1.95-10.25,5.85-14.15S564.467,110,570,110s10.25,1.95,14.15,5.85S590,124.467,590,130
	c0-5.533-1.95-10.25-5.85-14.15S575.533,110,570,110s-10.25,1.95-14.15,5.85S550,124.467,550,130s1.95,10.25,5.85,14.15
	S564.467,150,570,150s10.25-1.95,14.15-5.85S590,135.533,590,130H740z"/>
<path fill-rule="evenodd" clip-rule="evenodd" d="M0,341.55c1.933-11.366,5.067-22.2,9.4-32.5c0.2-0.467,0.4-0.934,0.6-1.399
	c7.933-18.601,19.817-35.534,35.65-50.801c15.934-15.933,33.55-27.8,52.85-35.6c19.133-7.866,40.1-11.634,62.9-11.3L1100,210h0.2v30
	c5.433,0.033,10.083,1.983,13.95,5.85c3.899,3.9,5.85,8.617,5.85,14.15s-1.95,10.25-5.85,14.15c-3.9,3.899-8.617,5.85-14.15,5.85
	s-10.25-1.95-14.15-5.85c-3.9-3.9-5.85-8.617-5.85-14.15s1.95-10.25,5.85-14.15c3.9-3.899,8.617-5.85,14.15-5.85
	c0.066,0,0.133,0,0.2,0c-0.067,0-0.134,0-0.2,0c-5.533,0-10.25,1.95-14.15,5.85c-3.9,3.9-5.85,8.617-5.85,14.15
	s1.95,10.25,5.85,14.15c3.9,3.899,8.617,5.85,14.15,5.85s10.25-1.95,14.15-5.85c3.899-3.9,5.85-8.617,5.85-14.15
	s-1.95-10.25-5.85-14.15c-3.867-3.866-8.518-5.816-13.95-5.85v-30l39.5-0.1l897.95-0.051c11.833-0.166,22.732,0.551,32.699,2.15
	c10.7,1.7,20.684,4.45,29.95,8.25c19.3,7.8,36.917,19.667,52.851,35.6c16.232,15.667,28.316,33.067,36.25,52.2
	c0.199,0.467,0.399,0.95,0.6,1.45c4.633,11.434,7.833,23.517,9.6,36.25c0.134,1.033,0.268,2.083,0.4,3.15
	c0.8,6.833,1.2,13.85,1.2,21.05v29.899h-96.8c-0.367-31.1-8.5-54.433-24.4-70c-16.066-16.399-40.133-24.533-72.2-24.399L191,306.1
	c-31.833-0.1-55.9,8.15-72.2,24.75c-15.733,15.4-23.85,38.4-24.35,69H-2.4V370.95c0-9.3,0.667-18.283,2-26.95
	C-0.267,343.167-0.133,342.35,0,341.55z"/>
<polygon fill-rule="evenodd" clip-rule="evenodd" fill="#3567B1" points="1100,59.925 1099.6,59.95 0,0 -0.4,-0.05 0,-0.05 
	2199.6,-0.05 "/>
<path fill="#3567B1" d="M1100,285c-6.881,0-12.832-2.461-17.685-7.313c-4.854-4.854-7.315-10.806-7.315-17.687
	s2.461-12.832,7.314-17.686c3.687-3.687,8.006-5.993,12.886-6.889v-24.021c-0.134-0.459-0.205-0.946-0.2-1.449l0.1-11.244
	L1095,59.928c-0.002-2.761,2.235-5.001,4.997-5.003c0.001,0,0.002,0,0.003,0c2.76,0,4.998,2.236,5,4.997l0.1,138.813
	c0,0.004,0,0.008,0,0.013l0.101,11.208v25.541c4.707,0.943,8.892,3.225,12.485,6.817c4.854,4.855,7.314,10.806,7.314,17.687
	s-2.461,12.831-7.313,17.686C1112.831,282.539,1106.881,285,1100,285z M1100,245c-4.191,0-7.663,1.435-10.615,4.386
	c-2.951,2.951-4.385,6.423-4.385,10.614s1.435,7.663,4.386,10.615c2.951,2.95,6.423,4.385,10.614,4.385s7.663-1.435,10.615-4.386
	c2.95-2.951,4.385-6.423,4.385-10.614s-1.435-7.663-4.386-10.615c-2.922-2.922-6.335-4.356-10.431-4.385H1100z"/>
<path fill="#CCCCCC" d="M690,185H490c-1.042,0-2.058-0.326-2.906-0.931l-50.062-35.751C432.302,152.752,426.576,155,420,155
	c-6.882,0-12.832-2.461-17.686-7.314S395,136.882,395,130s2.461-12.832,7.314-17.686S413.118,105,420,105s12.832,2.461,17.686,7.314
	S445,123.118,445,130c0,3.666-0.707,7.083-2.108,10.214L491.602,175h196.327l40-40H594.537c-0.922,4.797-3.215,9.049-6.851,12.686
	C582.832,152.539,576.882,155,570,155s-12.832-2.461-17.686-7.314S545,136.882,545,130s2.461-12.832,7.314-17.686
	S563.118,105,570,105s12.832,2.461,17.686,7.314c3.636,3.636,5.929,7.888,6.851,12.686h243.392l-30-30h-93.392
	c-0.922,4.797-3.215,9.049-6.851,12.686C702.832,112.539,696.882,115,690,115s-12.832-2.461-17.686-7.314S665,96.882,665,90
	s2.461-12.832,7.314-17.686S683.118,65,690,65s12.832,2.461,17.686,7.314c3.636,3.636,5.929,7.888,6.851,12.686H810
	c1.326,0,2.598,0.527,3.536,1.464L852.071,125h163.392c0.922-4.797,3.215-9.049,6.851-12.686c4.854-4.854,10.804-7.314,17.686-7.314
	s12.832,2.461,17.686,7.314c2.195,2.194,3.923,4.652,5.136,7.307c1.447,3.177,2.178,6.667,2.178,10.379
	c0,6.882-2.461,12.832-7.314,17.686S1046.882,155,1040,155c-3.401,0-6.616-0.615-9.557-1.828c-2.974-1.222-5.711-3.068-8.129-5.487
	c-3.636-3.636-5.929-7.888-6.851-12.685H742.071l-48.536,48.536C692.598,184.473,691.326,185,690,185z M1025,130
	c0,4.191,1.435,7.663,4.386,10.614c1.498,1.499,3.089,2.582,4.864,3.311c1.756,0.725,3.635,1.075,5.75,1.075
	c4.191,0,7.663-1.435,10.614-4.386S1055,134.191,1055,130c0-2.305-0.417-4.343-1.276-6.228c-0.712-1.559-1.76-3.037-3.109-4.386
	c-2.952-2.952-6.423-4.386-10.615-4.386s-7.663,1.435-10.614,4.386S1025,125.809,1025,130z M570,115
	c-4.191,0-7.663,1.435-10.614,4.386S555,125.809,555,130s1.435,7.663,4.386,10.614S565.809,145,570,145s7.663-1.435,10.614-4.386
	S585,134.191,585,130s-1.435-7.663-4.386-10.614S574.191,115,570,115z M420,115c-4.191,0-7.663,1.435-10.614,4.386
	S405,125.809,405,130s1.435,7.663,4.386,10.614S415.809,145,420,145s7.663-1.435,10.614-4.386c0.616-0.616,1.17-1.26,1.647-1.913
	c0.005-0.008,0.011-0.016,0.017-0.023C434.11,136.17,435,133.331,435,130c0-4.191-1.435-7.663-4.386-10.614S424.191,115,420,115z
	 M690,75c-4.191,0-7.663,1.435-10.614,4.386S675,85.809,675,90s1.435,7.663,4.386,10.614S685.809,105,690,105
	s7.663-1.435,10.614-4.386S705,94.191,705,90s-1.435-7.663-4.386-10.614S694.191,75,690,75z M1840,175
	c-6.882,0-12.832-2.461-17.686-7.314c-4.854-4.854-7.314-10.804-7.314-17.686s2.461-12.832,7.313-17.685
	c0.494-0.494,1.001-0.963,1.521-1.409l-5.905-5.906H1760c-1.326,0-2.598-0.527-3.535-1.464L1717.929,85h-175.857l-48.536,48.536
	c-0.938,0.938-2.209,1.464-3.535,1.464h-305.469c-0.926,4.814-3.218,9.058-6.846,12.686c-4.854,4.854-10.804,7.314-17.686,7.314
	s-12.832-2.461-17.686-7.314c-4.854-4.854-7.314-10.804-7.314-17.686s2.461-12.832,7.313-17.685
	c4.854-4.854,10.805-7.315,17.687-7.315s12.832,2.461,17.686,7.314c3.634,3.634,5.928,7.886,6.851,12.686h303.393l48.536-48.536
	c0.938-0.938,2.209-1.464,3.535-1.464h179.983c0.012,0,0.021,0,0.033,0h185.447c0.921-4.797,3.214-9.049,6.85-12.685
	C1917.168,57.461,1923.118,55,1930,55s12.832,2.461,17.686,7.314C1952.539,67.168,1955,73.119,1955,80s-2.461,12.832-7.313,17.685
	c-4.854,4.854-10.805,7.315-17.687,7.315s-12.832-2.461-17.686-7.314c-3.636-3.636-5.93-7.888-6.851-12.686h-173.393l30,30H1820
	c1.326,0,2.598,0.527,3.535,1.465l9.478,9.477c2.214-0.626,4.552-0.942,6.987-0.942c6.882,0,12.832,2.461,17.686,7.314
	c4.854,4.854,7.314,10.804,7.314,17.686c0,3.707-0.732,7.19-2.177,10.352c-1.202,2.657-2.934,5.129-5.138,7.333
	C1852.832,172.539,1846.882,175,1840,175z M1833.828,136.261c-0.014,0.006-0.028,0.013-0.042,0.019
	c-1.57,0.71-3.051,1.755-4.401,3.106c-2.95,2.95-4.385,6.422-4.385,10.614s1.435,7.664,4.386,10.615
	c2.951,2.951,6.423,4.385,10.614,4.385s7.663-1.435,10.615-4.386c1.349-1.349,2.394-2.83,3.105-4.401
	c0.863-1.89,1.279-3.917,1.279-6.213c0-4.191-1.435-7.664-4.386-10.615c-2.951-2.951-6.423-4.385-10.614-4.385
	C1837.715,135,1835.695,135.413,1833.828,136.261z M1160,115c-4.191,0-7.663,1.435-10.615,4.386
	c-2.95,2.951-4.385,6.423-4.385,10.614s1.435,7.664,4.386,10.615c2.951,2.951,6.423,4.385,10.614,4.385s7.663-1.435,10.615-4.386
	c2.904-2.905,4.34-6.313,4.385-10.42v-0.175c0-0.006,0-0.013,0-0.02v-0.25c-0.045-4.051-1.48-7.459-4.385-10.364
	C1167.663,116.435,1164.191,115,1160,115z M1915,80c0,4.191,1.435,7.664,4.386,10.615C1922.337,93.565,1925.809,95,1930,95
	s7.663-1.435,10.615-4.386c2.95-2.951,4.385-6.423,4.385-10.614s-1.435-7.664-4.386-10.615C1937.663,66.435,1934.191,65,1930,65
	s-7.663,1.435-10.615,4.386C1916.435,72.336,1915,75.809,1915,80z"/>
</svg>
